<?xml version="1.0" standalone="no"?><!DOCTYPE svg PUBLIC "-//W3C//DTD SVG 1.1//EN" "http://www.w3.org/Graphics/SVG/1.1/DTD/svg11.dtd"><svg t="1555999553986" class="icon" style="" viewBox="0 0 1024 1024" version="1.1" xmlns="http://www.w3.org/2000/svg" p-id="3089" xmlns:xlink="http://www.w3.org/1999/xlink" width="200" height="200"><defs><style type="text/css"></style></defs><path d="M819.631158 846.821053H215.578947a26.947368 26.947368 0 0 0 0 53.894736h604.052211a26.947368 26.947368 0 0 0 0-53.894736z" fill="#1189F9" p-id="3090"></path><path d="M696.805053 550.804211a68.931368 68.931368 0 0 1-67.961264-69.847579v-25.034106a44.328421 44.328421 0 0 1 12.099369-31.312842 168.96 168.96 0 0 0 47.050105-146.378105 170.684632 170.684632 0 0 0-339.159579 27.270737 168.879158 168.879158 0 0 0 49.77179 119.673263 44.193684 44.193684 0 0 1 12.126315 31.366737v27.621052a69.712842 69.712842 0 0 1-69.551157 66.775579 152.468211 152.468211 0 0 0-152.468211 152.441264v75.129263a25.061053 25.061053 0 0 0 25.061053 25.088h612.378947a25.088 25.088 0 0 0 25.088-25.088v-75.129263a152.468211 152.468211 0 0 0-154.435368-152.576z m100.432842 198.736842H242.580211v-43.11579a102.4 102.4 0 0 1 102.696421-101.699368 120.643368 120.643368 0 0 0 119.646315-120.643369v-31.744a98.115368 98.115368 0 0 0-29.184-67.368421 115.712 115.712 0 0 1 56.239158-192.646737 116.277895 116.277895 0 0 1 143.710316 112.909474 114.337684 114.337684 0 0 1-31.717053 79.144421 98.546526 98.546526 0 0 0-28.968421 67.368421v33.818948a120.562526 120.562526 0 0 0 120.508632 119.242105 101.726316 101.726316 0 0 1 101.726316 101.699368z" fill="#1189F9" p-id="3091"></path></svg>