<?xml version="1.0" standalone="no"?><!DOCTYPE svg PUBLIC "-//W3C//DTD SVG 1.1//EN" "http://www.w3.org/Graphics/SVG/1.1/DTD/svg11.dtd"><svg t="1563276265735" class="icon" viewBox="0 0 1024 1024" version="1.1" xmlns="http://www.w3.org/2000/svg" p-id="3195" xmlns:xlink="http://www.w3.org/1999/xlink" width="200" height="200"><defs><style type="text/css"></style></defs><path d="M557.029038 842.113402l-41.338833 41.338833-30.182893-30.204224L575.992001 762.848644l90.399367 90.399367-30.097571 30.204224-34.641004-34.662334a170.645336 170.645336 0 1 0 166.379203-208.84856v-42.661334a213.30667 213.30667 0 1 1-210.917635 244.876057zM192.082656 981.210682a85.450652 85.450652 0 0 1-85.322668-85.322668V127.984002a85.450652 85.450652 0 0 1 85.322668-85.322668h618.589343a85.514644 85.514644 0 0 1 85.322668 85.322668v469.274674h-42.661334V127.984002a42.661334 42.661334 0 0 0-42.661334-42.661334h-618.589343a42.661334 42.661334 0 0 0-42.661334 42.661334v767.904012a42.661334 42.661334 0 0 0 42.661334 42.661334h298.629338v42.661334z" fill="#3E4DA8" p-id="3196"></path><path d="M298.714661 661.250677v-42.661334h319.960005v42.661334z m0-127.984002v-42.661334h405.282673v42.661334z m-21.330667-213.434654a85.322668 85.322668 0 1 1 85.322668 85.450652 85.322668 85.322668 0 0 1-85.322668-85.322668z m42.661334 0a42.661334 42.661334 0 1 0 42.661334-42.53335 42.661334 42.661334 0 0 0-42.661334 42.661334z m213.30667 21.330667v-42.661334h170.645336v42.661334z" fill="#FBC773" p-id="3197"></path></svg>