<?xml version="1.0" standalone="no"?><!DOCTYPE svg PUBLIC "-//W3C//DTD SVG 1.1//EN" "http://www.w3.org/Graphics/SVG/1.1/DTD/svg11.dtd"><svg t="1555998106571" class="icon" style="" viewBox="0 0 1024 1024" version="1.1" xmlns="http://www.w3.org/2000/svg" p-id="2837" xmlns:xlink="http://www.w3.org/1999/xlink" width="200" height="200"><defs><style type="text/css"></style></defs><path d="M830.679579 405.450105L544.875789 147.779368a47.966316 47.966316 0 0 0-65.751578 0L193.320421 405.261474A100.540632 100.540632 0 0 0 161.684211 478.477474v263.114105a146.701474 146.701474 0 0 0 146.701473 146.701474h114.122105a33.576421 33.576421 0 0 0 33.576422-33.576421v-173.702737h113.313684v173.702737a33.576421 33.576421 0 0 0 33.603368 33.576421h112.586105A146.701474 146.701474 0 0 0 862.315789 741.591579v-262.952421a100.540632 100.540632 0 0 0-31.63621-73.189053z m-110.753684 428.166737h-87.093895a12.934737 12.934737 0 0 1-12.934737-12.934737v-135.006316a55.134316 55.134316 0 0 0-55.161263-55.161263h-103.989895a55.161263 55.161263 0 0 0-55.161263 55.161263v135.006316a12.934737 12.934737 0 0 1-12.934737 12.934737h-89.411368A87.632842 87.632842 0 0 1 215.578947 745.957053v-268.045474a43.978105 43.978105 0 0 1 13.877895-32.067368l264.084211-237.136843a26.758737 26.758737 0 0 1 36.729263 0l263.410526 237.136843a44.085895 44.085895 0 0 1 13.824 32.040421v268.072421a87.659789 87.659789 0 0 1-87.578947 87.659789z" fill="#4283FF" p-id="2838"></path></svg>