<svg xmlns="http://www.w3.org/2000/svg" width="68" height="68" viewBox="0 0 68 68">
  <g id="组_1608" data-name="组 1608" transform="translate(-579 -87)">
    <g id="组_1513" data-name="组 1513" transform="translate(579 87)" opacity="0">
      <path id="路径_862" data-name="路径 862" d="M0,0H68V68H0Z" fill="#fff"/>
    </g>
    <g id="组_1607" data-name="组 1607" transform="translate(-4 -2)">
      <g id="椭圆_806" data-name="椭圆 806" transform="translate(593 99)" fill="#3e4da8" stroke="#48507e" stroke-width="1">
        <circle cx="24" cy="24" r="24" stroke="none"/>
        <circle cx="24" cy="24" r="23.5" fill="none"/>
      </g>
      <g id="路径_1063" data-name="路径 1063" transform="translate(602 108)" fill="#fbc773">
        <path d="M 15 29 C 11.26047039031982 29 7.744760036468506 27.54375076293945 5.100510120391846 24.89949035644531 C 2.456249952316284 22.25523948669434 1 18.73953056335449 1 15 C 1 11.26047039031982 2.456249952316284 7.744760036468506 5.100510120391846 5.100510120391846 C 7.744760036468506 2.456249952316284 11.26047039031982 1 15 1 C 18.73953056335449 1 22.25523948669434 2.456249952316284 24.89949035644531 5.100510120391846 C 27.54375076293945 7.744760036468506 29 11.26047039031982 29 15 C 29 18.73953056335449 27.54375076293945 22.25523948669434 24.89949035644531 24.89949035644531 C 22.25523948669434 27.54375076293945 18.73953056335449 29 15 29 Z" stroke="none"/>
        <path d="M 15 2 C 11.5275707244873 2 8.262990951538086 3.352239608764648 5.807609558105469 5.807609558105469 C 3.352239608764648 8.262990951538086 2 11.5275707244873 2 15 C 2 18.47243118286133 3.352239608764648 21.73701095581055 5.807609558105469 24.19239044189453 C 8.262990951538086 26.64776039123535 11.5275707244873 28 15 28 C 18.47243118286133 28 21.73701095581055 26.64776039123535 24.19239044189453 24.19239044189453 C 26.64776039123535 21.73701095581055 28 18.47243118286133 28 15 C 28 11.5275707244873 26.64776039123535 8.262990951538086 24.19239044189453 5.807609558105469 C 21.73701095581055 3.352239608764648 18.47243118286133 2 15 2 M 15 0 C 23.28426933288574 0 30 6.715730667114258 30 15 C 30 23.28426933288574 23.28426933288574 30 15 30 C 6.715730667114258 30 0 23.28426933288574 0 15 C 0 6.715730667114258 6.715730667114258 0 15 0 Z" stroke="none" fill="#f3bc64"/>
      </g>
      <g id="椭圆_807" data-name="椭圆 807" transform="translate(610 116)" fill="#3e4da8" stroke="#48507e" stroke-width="1">
        <circle cx="7" cy="7" r="7" stroke="none"/>
        <circle cx="7" cy="7" r="6.5" fill="none"/>
      </g>
      <g id="联合_534" data-name="联合 534" transform="translate(-23681.057 3334.641) rotate(-30)" fill="#fff" stroke-linejoin="round">
        <path d="M 22671.875 9371.822265625 L 22671 9371.822265625 L 22661.998046875 9371.822265625 L 22661.71484375 9371.822265625 L 22661.5703125 9371.580078125 L 22660.314453125 9369.5009765625 L 22648.998046875 9369.5009765625 C 22648.173828125 9369.5009765625 22647.501953125 9368.828125 22647.501953125 9368 C 22647.501953125 9367.171875 22648.173828125 9366.498046875 22648.998046875 9366.498046875 L 22660.40625 9366.498046875 L 22661.58203125 9364.724609375 L 22661.73046875 9364.5009765625 L 22661.998046875 9364.5009765625 L 22671 9364.5009765625 L 22671.919921875 9364.5009765625 L 22671.419921875 9365.2734375 L 22669.63671875 9368.0234375 L 22671.431640625 9371.068359375 L 22671.875 9371.822265625 Z" stroke="none"/>
        <path d="M 22671 9371.322265625 L 22669.048828125 9368.0107421875 L 22671 9365.0009765625 L 22661.998046875 9365.0009765625 L 22660.673828125 9366.998046875 L 22648.998046875 9366.998046875 C 22648.4453125 9366.998046875 22648.001953125 9367.4482421875 22648.001953125 9368 C 22648.001953125 9368.5517578125 22648.4453125 9369.0009765625 22648.998046875 9369.0009765625 L 22660.59765625 9369.0009765625 L 22661.998046875 9371.322265625 L 22671 9371.322265625 M 22671 9372.322265625 L 22661.998046875 9372.322265625 C 22661.6484375 9372.322265625 22661.322265625 9372.138671875 22661.142578125 9371.8388671875 L 22660.033203125 9370.0009765625 L 22648.998046875 9370.0009765625 C 22647.896484375 9370.0009765625 22647.001953125 9369.103515625 22647.001953125 9368 C 22647.001953125 9366.896484375 22647.896484375 9365.998046875 22648.998046875 9365.998046875 L 22660.13671875 9365.998046875 L 22661.1640625 9364.4482421875 C 22661.349609375 9364.1689453125 22661.662109375 9364.0009765625 22661.998046875 9364.0009765625 L 22671 9364.0009765625 C 22671.3671875 9364.0009765625 22671.703125 9364.201171875 22671.87890625 9364.5234375 C 22672.052734375 9364.845703125 22672.0390625 9365.2373046875 22671.83984375 9365.544921875 L 22670.224609375 9368.0361328125 L 22671.861328125 9370.814453125 C 22672.04296875 9371.1240234375 22672.046875 9371.5068359375 22671.869140625 9371.818359375 C 22671.689453125 9372.1298828125 22671.359375 9372.322265625 22671 9372.322265625 Z" stroke="none" fill="#3e4da8"/>
      </g>
    </g>
  </g>
</svg>
