<svg xmlns="http://www.w3.org/2000/svg" width="68" height="68" viewBox="0 0 68 68">
  <g id="组_1515" data-name="组 1515" transform="translate(-180 -75)">
    <g id="组_1513" data-name="组 1513" transform="translate(180 75)" opacity="0">
      <path id="路径_862" data-name="路径 862" d="M0,0H68V68H0Z" fill="#fff"/>
    </g>
    <g id="组_1514" data-name="组 1514" transform="translate(194.144 84.911)">
      <g id="减去_363" data-name="减去 363" transform="translate(2.976 4.468)" fill="#3e4da8">
        <path d="M 22.37800025939941 41.12139892578125 L 18.37850189208984 41.12060165405273 L 18.37850189208984 40.62150192260742 C 18.37850189208984 39.79444885253906 17.70565032958984 39.12160110473633 16.87860107421875 39.12160110473633 L 14.8788013458252 39.12160110473633 C 14.05175113677979 39.12160110473633 13.37890148162842 39.79444885253906 13.37890148162842 40.62150192260742 L 13.37890148162842 41.12049865722656 L 10.37930107116699 41.12049865722656 L 10.37930107116699 40.62150192260742 C 10.37930107116699 39.79444885253906 9.70604133605957 39.12160110473633 8.878500938415527 39.12160110473633 L 6.878701210021973 39.12160110473633 C 6.051651000976563 39.12160110473633 5.378800868988037 39.79444885253906 5.378800868988037 40.62150192260742 L 5.378800868988037 41.12049865722656 L 2.878201007843018 41.12049865722656 C 0.9485110640525818 41.12049865722656 -0.62139892578125 39.55059051513672 -0.62139892578125 37.62089920043945 L -0.62139892578125 4.62060022354126 C -0.62139892578125 2.69091010093689 0.9485110640525818 1.121000170707703 2.878201007843018 1.121000170707703 L 30.87810134887695 1.121000170707703 C 32.80828094482422 1.121000170707703 34.37860107421875 2.69091010093689 34.37860107421875 4.62060022354126 L 34.37860107421875 37.62089920043945 C 34.37860107421875 39.55059051513672 32.80828094482422 41.12049865722656 30.87810134887695 41.12049865722656 L 27.37850189208984 41.12049865722656 L 27.37850189208984 40.62150192260742 C 27.37850189208984 39.79444885253906 26.70565032958984 39.12160110473633 25.87860107421875 39.12160110473633 L 23.8788013458252 39.12160110473633 C 23.05126190185547 39.12160110473633 22.37800025939941 39.79444885253906 22.37800025939941 40.62150192260742 L 22.37800025939941 41.12139892578125 Z" stroke="none"/>
        <path d="M 21.87800216674805 40.62129974365234 C 21.87811088562012 39.51864242553711 22.7756290435791 38.62160110473633 23.8788013458252 38.62160110473633 L 25.87860107421875 38.62160110473633 C 26.98101425170898 38.62160110473633 27.87795257568359 39.51821136474609 27.87849998474121 40.62049865722656 L 30.87810134887695 40.62049865722656 C 32.5325813293457 40.62049865722656 33.87860107421875 39.2748908996582 33.87860107421875 37.62089920043945 L 33.87860107421875 4.62060022354126 C 33.87860107421875 2.966610193252563 32.5325813293457 1.621000170707703 30.87810134887695 1.621000170707703 L 2.878201007843018 1.621000170707703 C 1.224211096763611 1.621000170707703 -0.12139892578125 2.966610193252563 -0.12139892578125 4.62060022354126 L -0.12139892578125 37.62089920043945 C -0.12139892578125 39.2748908996582 1.224211096763611 40.62049865722656 2.878201007843018 40.62049865722656 L 4.878801822662354 40.62049865722656 C 4.879349231719971 39.51821136474609 5.77628755569458 38.62160110473633 6.878701210021973 38.62160110473633 L 8.878500938415527 38.62160110473633 C 9.981404304504395 38.62160110473633 10.87875270843506 39.51821136474609 10.87930011749268 40.62049865722656 L 12.87890148162842 40.62049865722656 C 12.87944889068604 39.51821136474609 13.77638721466064 38.62160110473633 14.8788013458252 38.62160110473633 L 16.87860107421875 38.62160110473633 C 17.98108100891113 38.62160110473633 18.8780632019043 39.51831817626953 18.87849998474121 40.62070083618164 L 21.87800216674805 40.62129974365234 M 22.87800025939941 41.62150192260742 L 22.87700080871582 41.62150192260742 L 17.87850189208984 41.62049865722656 L 17.87850189208984 40.62150192260742 C 17.87850189208984 40.07014846801758 17.42995071411133 39.62160110473633 16.87860107421875 39.62160110473633 L 14.8788013458252 39.62160110473633 C 14.3274507522583 39.62160110473633 13.87890148162842 40.07014846801758 13.87890148162842 40.62150192260742 L 13.87890148162842 41.62049865722656 L 9.879301071166992 41.62049865722656 L 9.879301071166992 40.62150192260742 C 9.879301071166992 40.07014846801758 9.430340766906738 39.62160110473633 8.878500938415527 39.62160110473633 L 6.878701210021973 39.62160110473633 C 6.327351093292236 39.62160110473633 5.878800868988037 40.07014846801758 5.878800868988037 40.62150192260742 L 5.878800868988037 41.62049865722656 L 2.878201007843018 41.62049865722656 C 0.6728110909461975 41.62049865722656 -1.12139892578125 39.82629013061523 -1.12139892578125 37.62089920043945 L -1.12139892578125 4.62060022354126 C -1.12139892578125 2.415210247039795 0.6728110909461975 0.6210001707077026 2.878201007843018 0.6210001707077026 L 30.87810134887695 0.6210001707077026 C 33.08398056030273 0.6210001707077026 34.87860107421875 2.415210247039795 34.87860107421875 4.62060022354126 L 34.87860107421875 37.62089920043945 C 34.87860107421875 39.82629013061523 33.08398056030273 41.62049865722656 30.87810134887695 41.62049865722656 L 26.87850189208984 41.62049865722656 L 26.87850189208984 40.62150192260742 C 26.87850189208984 40.07014846801758 26.42995071411133 39.62160110473633 25.87860107421875 39.62160110473633 L 23.8788013458252 39.62160110473633 C 23.32696151733398 39.62160110473633 22.87800025939941 40.07014846801758 22.87800025939941 40.62150192260742 L 22.87800025939941 41.62049865722656 L 22.87800025939941 41.62150192260742 Z" stroke="none" fill="#48507e"/>
      </g>
      <g id="矩形_3884" data-name="矩形 3884" transform="translate(-1.145 3.089)" fill="#fbc773" stroke="#f3bc64" stroke-width="1">
        <rect width="42" height="8" rx="2" stroke="none"/>
        <rect x="0.5" y="0.5" width="41" height="7" rx="1.5" fill="none"/>
      </g>
      <rect id="矩形_3889" data-name="矩形 3889" width="22" height="2" transform="translate(8.855 15.089)" fill="#e8e9ee"/>
      <rect id="矩形_3894" data-name="矩形 3894" width="9" height="3" transform="translate(14.855 29.088) rotate(90)" fill="#f3cebb"/>
      <rect id="矩形_3897" data-name="矩形 3897" width="9" height="2" transform="translate(24.855 29.088) rotate(90)" fill="#f3cebb"/>
      <rect id="矩形_3898" data-name="矩形 3898" width="9" height="1" transform="translate(27.855 29.088) rotate(90)" fill="#f3cebb"/>
      <rect id="矩形_3899" data-name="矩形 3899" width="9" height="1" transform="translate(30.856 29.088) rotate(90)" fill="#f3cebb"/>
      <rect id="矩形_3900" data-name="矩形 3900" width="9" height="1" transform="translate(9.856 29.088) rotate(90)" fill="#f3cebb"/>
      <rect id="矩形_3901" data-name="矩形 3901" width="8.189" height="2" transform="translate(8.855 21.089)" fill="#f6f6f8"/>
      <rect id="矩形_3902" data-name="矩形 3902" width="3" height="3" rx="1.5" transform="translate(27.855 20.867)" fill="#f6f6f8"/>
      <rect id="矩形_3903" data-name="矩形 3903" width="9" height="1" transform="translate(20.856 29.088) rotate(90)" fill="#f3cebb"/>
      <rect id="矩形_3904" data-name="矩形 3904" width="9" height="1" transform="translate(17.856 29.088) rotate(90)" fill="#f3cebb"/>
    </g>
  </g>
</svg>
