<svg xmlns="http://www.w3.org/2000/svg" width="68" height="68" viewBox="0 0 68 68">
  <g id="组_1531" data-name="组 1531" transform="translate(-819 -88)">
    <g id="组_1513" data-name="组 1513" transform="translate(819 88)" opacity="0">
      <path id="路径_862" data-name="路径 862" d="M0,0H68V68H0Z" fill="#fff"/>
    </g>
    <g id="组_1530" data-name="组 1530" transform="translate(-0.001 0)">
      <g id="联合_510" data-name="联合 510" transform="translate(-23485.996 -10871)" fill="#fbc773">
        <path d="M 24350.001953125 11004.501953125 L 24319.001953125 11004.501953125 C 24317.0703125 11004.501953125 24315.498046875 11002.9306640625 24315.498046875 11000.9990234375 L 24315.498046875 10979.0009765625 L 24315.498046875 10974.998046875 C 24315.498046875 10973.0693359375 24317.0703125 10971.5009765625 24319.001953125 10971.5009765625 L 24326.330078125 10971.5009765625 C 24327.69140625 10971.5009765625 24328.375 10972.4423828125 24329.099609375 10973.4384765625 C 24329.77734375 10974.37109375 24330.478515625 10975.3359375 24331.7421875 10975.494140625 L 24331.7734375 10975.498046875 L 24331.8046875 10975.498046875 L 24350.001953125 10975.498046875 C 24351.931640625 10975.498046875 24353.5 10977.0693359375 24353.5 10979.0009765625 L 24353.5 11000.9990234375 C 24353.5 11002.9306640625 24351.931640625 11004.501953125 24350.001953125 11004.501953125 Z" stroke="none"/>
        <path d="M 24350.001953125 11004.001953125 C 24351.654296875 11004.001953125 24353 11002.6552734375 24353 11000.9990234375 L 24353 10979.0009765625 C 24353 10977.3447265625 24351.654296875 10975.998046875 24350.001953125 10975.998046875 L 24331.8046875 10975.998046875 L 24331.7421875 10975.998046875 L 24331.6796875 10975.990234375 C 24330.201171875 10975.8046875 24329.400390625 10974.7041015625 24328.6953125 10973.732421875 C 24327.916015625 10972.6591796875 24327.3828125 10972.0009765625 24326.330078125 10972.0009765625 L 24319.001953125 10972.0009765625 C 24317.345703125 10972.0009765625 24315.998046875 10973.345703125 24315.998046875 10974.998046875 L 24315.998046875 10979.0009765625 L 24315.998046875 11000.9990234375 C 24315.998046875 11002.6552734375 24317.345703125 11004.001953125 24319.001953125 11004.001953125 L 24350.001953125 11004.001953125 M 24350.001953125 11005.001953125 L 24319.001953125 11005.001953125 C 24316.7890625 11005.001953125 24314.998046875 11003.2109375 24314.998046875 11000.9990234375 L 24314.998046875 10979.0009765625 L 24314.998046875 10974.998046875 C 24314.998046875 10972.7919921875 24316.7890625 10971.0009765625 24319.001953125 10971.0009765625 L 24326.330078125 10971.0009765625 C 24329.302734375 10971.0009765625 24329.50390625 10974.7099609375 24331.8046875 10974.998046875 L 24350.001953125 10974.998046875 C 24352.208984375 10974.998046875 24354 10976.7890625 24354 10979.0009765625 L 24354 11000.9990234375 C 24354 11003.2109375 24352.208984375 11005.001953125 24350.001953125 11005.001953125 Z" stroke="none" fill="#f3bc64"/>
      </g>
      <g id="联合_509" data-name="联合 509" transform="translate(-23477.996 -10861)" fill="#3e4da8">
        <path d="M 24350.001953125 11004.501953125 L 24319.001953125 11004.501953125 C 24317.0703125 11004.501953125 24315.498046875 11002.9306640625 24315.498046875 11000.9990234375 L 24315.498046875 10979.0009765625 L 24315.498046875 10974.998046875 C 24315.498046875 10973.0693359375 24317.0703125 10971.5009765625 24319.001953125 10971.5009765625 L 24326.330078125 10971.5009765625 C 24327.69140625 10971.5009765625 24328.375 10972.4423828125 24329.099609375 10973.4384765625 C 24329.77734375 10974.37109375 24330.478515625 10975.3359375 24331.7421875 10975.494140625 L 24331.7734375 10975.498046875 L 24331.8046875 10975.498046875 L 24350.001953125 10975.498046875 C 24351.931640625 10975.498046875 24353.5 10977.0693359375 24353.5 10979.0009765625 L 24353.5 11000.9990234375 C 24353.5 11002.9306640625 24351.931640625 11004.501953125 24350.001953125 11004.501953125 Z" stroke="none"/>
        <path d="M 24350.001953125 11004.001953125 C 24351.654296875 11004.001953125 24353 11002.6552734375 24353 11000.9990234375 L 24353 10979.0009765625 C 24353 10977.3447265625 24351.654296875 10975.998046875 24350.001953125 10975.998046875 L 24331.8046875 10975.998046875 L 24331.7421875 10975.998046875 L 24331.6796875 10975.990234375 C 24330.201171875 10975.8046875 24329.400390625 10974.7041015625 24328.6953125 10973.732421875 C 24327.916015625 10972.6591796875 24327.3828125 10972.0009765625 24326.330078125 10972.0009765625 L 24319.001953125 10972.0009765625 C 24317.345703125 10972.0009765625 24315.998046875 10973.345703125 24315.998046875 10974.998046875 L 24315.998046875 10979.0009765625 L 24315.998046875 11000.9990234375 C 24315.998046875 11002.6552734375 24317.345703125 11004.001953125 24319.001953125 11004.001953125 L 24350.001953125 11004.001953125 M 24350.001953125 11005.001953125 L 24319.001953125 11005.001953125 C 24316.7890625 11005.001953125 24314.998046875 11003.2109375 24314.998046875 11000.9990234375 L 24314.998046875 10979.0009765625 L 24314.998046875 10974.998046875 C 24314.998046875 10972.7919921875 24316.7890625 10971.0009765625 24319.001953125 10971.0009765625 L 24326.330078125 10971.0009765625 C 24329.302734375 10971.0009765625 24329.50390625 10974.7099609375 24331.8046875 10974.998046875 L 24350.001953125 10974.998046875 C 24352.208984375 10974.998046875 24354 10976.7890625 24354 10979.0009765625 L 24354 11000.9990234375 C 24354 11003.2109375 24352.208984375 11005.001953125 24350.001953125 11005.001953125 Z" stroke="none" fill="#48507e"/>
      </g>
      <rect id="矩形_3915" data-name="矩形 3915" width="27" height="2" transform="translate(843.003 136)" fill="#f3cebb"/>
      <rect id="矩形_3917" data-name="矩形 3917" width="11" height="2" transform="translate(843.003 128)" fill="#f3cebb"/>
      <path id="联合_371" data-name="联合 371" d="M13333.157,20897.447l-4.159-4.154V20895a1,1,0,1,1-2,0v-4a1,1,0,0,1,1-1h4a1,1,0,1,1,0,2h-1.463l4.038,4.039a1,1,0,0,1,0,1.41.987.987,0,0,1-.706.295A1,1,0,0,1,13333.157,20897.447Z" transform="translate(6211.823 -24074.07) rotate(45)" fill="#e2e7ff"/>
    </g>
  </g>
</svg>
