<?xml version="1.0" standalone="no"?><!DOCTYPE svg PUBLIC "-//W3C//DTD SVG 1.1//EN" "http://www.w3.org/Graphics/SVG/1.1/DTD/svg11.dtd"><svg t="1556012383712" class="icon" style="" viewBox="0 0 1024 1024" version="1.1" xmlns="http://www.w3.org/2000/svg" p-id="2623" xmlns:xlink="http://www.w3.org/1999/xlink" width="200" height="200"><defs><style type="text/css"></style></defs><path d="M775.033263 161.684211H414.261895a71.814737 71.814737 0 0 0-71.814737 71.814736v74.266948L195.557053 379.688421A108.570947 108.570947 0 0 0 134.736842 477.210947v206.821053a46.053053 46.053053 0 0 0 46.08 46.08h59.877053c0 1.994105-0.565895 3.853474-0.565895 5.847579a106.981053 106.981053 0 0 0 210.944 25.330526h99.328a106.765474 106.765474 0 0 0 207.494737 0h48.828631a56.373895 56.373895 0 0 0 56.346948-56.373894V249.856A88.171789 88.171789 0 0 0 775.033263 161.684211zM347.243789 788.965053a53.086316 53.086316 0 1 1 53.086316-53.086316 53.086316 53.086316 0 0 1-53.086316 53.086316z m306.957474 0a53.086316 53.086316 0 1 1 53.059369-53.086316 53.059368 53.059368 0 0 1-53.059369 53.086316z m155.055158-94.450527a12.746105 12.746105 0 0 1-12.746105 12.746106h-39.53179a106.522947 106.522947 0 0 0-205.554526 0h-101.376a106.792421 106.792421 0 0 0-191.703579-31.151158H202.132211a13.473684 13.473684 0 0 1-13.473685-13.473685v-187.418947a51.2 51.2 0 0 1 28.564211-45.810526l160.525474-78.147369a33.172211 33.172211 0 0 0 18.620631-29.803789V233.552842a17.893053 17.893053 0 0 1 17.893053-17.893053h358.238316a36.756211 36.756211 0 0 1 36.75621 36.756211z" fill="#1189F9" p-id="2624"></path><path d="M364.678737 399.413895a26.947368 26.947368 0 0 0-26.947369 26.947368v61.305263a12.880842 12.880842 0 0 1-12.907789 12.90779H264.165053a26.947368 26.947368 0 1 0 0 53.894737h86.905263a40.582737 40.582737 0 0 0 40.582737-40.582737v-87.552a26.947368 26.947368 0 0 0-26.974316-26.920421z" fill="#1189F9" p-id="2625"></path></svg>