<?xml version="1.0" standalone="no"?><!DOCTYPE svg PUBLIC "-//W3C//DTD SVG 1.1//EN" "http://www.w3.org/Graphics/SVG/1.1/DTD/svg11.dtd"><svg t="1555999595435" class="icon" style="" viewBox="0 0 1024 1024" version="1.1" xmlns="http://www.w3.org/2000/svg" p-id="3208" xmlns:xlink="http://www.w3.org/1999/xlink" width="200" height="200"><defs><style type="text/css"></style></defs><path d="M484.621474 565.544421h220.645052a26.947368 26.947368 0 0 0 0-53.894737h-220.645052a26.947368 26.947368 0 0 0 0 53.894737z" fill="#1189F9" p-id="3209"></path><path d="M619.358316 456.434526h85.90821a26.947368 26.947368 0 1 0 0-53.894737h-85.90821a26.947368 26.947368 0 1 0 0 53.894737z" fill="#1189F9" p-id="3210"></path><path d="M799.070316 199.976421H380.631579a32.768 32.768 0 0 0-32.768 32.768v415.232a32.794947 32.794947 0 0 0 32.768 32.768h418.438737a32.768 32.768 0 0 0 32.768-32.768V232.744421a32.741053 32.741053 0 0 0-32.768-32.768z m-21.153684 426.765474H401.785263V253.898105h376.131369z" fill="#1189F9" p-id="3211"></path><path d="M815.831579 718.039579h-463.494737a103.397053 103.397053 0 0 0-46.08-40.421053V247.242105a59.284211 59.284211 0 0 0-17.650526-42.253473L225.199158 142.551579a27.028211 27.028211 0 0 0-38.130526 38.346105l56.589473 56.589474a29.911579 29.911579 0 0 1 8.730948 21.099789v411.486316a103.019789 103.019789 0 1 0 115.577263 101.914948h447.865263a26.947368 26.947368 0 0 0 0-53.894737zM264.946526 821.948632a49.960421 49.960421 0 1 1 49.960421-49.960421 49.987368 49.987368 0 0 1-50.041263 49.960421z" fill="#1189F9" p-id="3212"></path></svg>