<?xml version="1.0" standalone="no"?><!DOCTYPE svg PUBLIC "-//W3C//DTD SVG 1.1//EN" "http://www.w3.org/Graphics/SVG/1.1/DTD/svg11.dtd"><svg t="1556011727664" class="icon" style="" viewBox="0 0 1024 1024" version="1.1" xmlns="http://www.w3.org/2000/svg" p-id="1860" xmlns:xlink="http://www.w3.org/1999/xlink" width="200" height="200"><defs><style type="text/css"></style></defs><path d="M832.215579 312.616421L532.372211 138.698105a29.291789 29.291789 0 0 0-29.345685 0L203.237053 312.077474a29.264842 29.264842 0 0 0-14.605474 25.330526v337.946947a29.291789 29.291789 0 0 0 14.416842 25.222737l299.897263 176.505263a29.291789 29.291789 0 0 0 29.642105 0l299.735579-175.966315a29.264842 29.264842 0 0 0 14.44379-25.249685V337.92a29.237895 29.237895 0 0 0-14.551579-25.303579z m-39.343158 333.069474a29.345684 29.345684 0 0 1-14.524632 25.303579l-246.110315 143.413894a29.237895 29.237895 0 0 1-29.642106 0l-245.679157-144.410947a29.291789 29.291789 0 0 1-14.44379-25.249684V367.535158a29.291789 29.291789 0 0 1 14.686316-25.357474l247.754105-142.524631a29.237895 29.237895 0 0 1 29.426526 0.134736l244.008421 143.413895a29.237895 29.237895 0 0 1 14.44379 25.222737z" fill="#4283FF" p-id="1861"></path><path d="M745.957053 380.038737a26.947368 26.947368 0 0 0-36.783158-9.997474l-185.370948 107.412211a11.264 11.264 0 0 1-11.210105 0l-186.826105-106.469053a26.974316 26.974316 0 1 0-26.947369 46.753684l186.206316 106.118737a11.317895 11.317895 0 0 1 5.632 9.754947v211.078737a26.947368 26.947368 0 0 0 53.894737 0v-210.512842a11.210105 11.210105 0 0 1 5.658947-9.754947l185.640421-107.600842a26.947368 26.947368 0 0 0 9.970527-36.783158z" fill="#4283FF" p-id="1862"></path></svg>