<?xml version="1.0" standalone="no"?><!DOCTYPE svg PUBLIC "-//W3C//DTD SVG 1.1//EN" "http://www.w3.org/Graphics/SVG/1.1/DTD/svg11.dtd"><svg t="1565146039627" class="icon" viewBox="0 0 1024 1024" version="1.1" xmlns="http://www.w3.org/2000/svg" p-id="5665" xmlns:xlink="http://www.w3.org/1999/xlink" width="200" height="200"><defs><style type="text/css"></style></defs><path d="M805.37023 129.426806H287.34769v768.068319l126.525896 126.504875 105.105413-105.105413 105.105414 105.105413 115.615954-115.615955 105.105414 105.105414 104.748055-104.748055V279.958779z m0 65.838031l74.288506 74.288506h-74.288506z m102.099398 696.050089l-62.663847 62.684869-105.105414-105.105414-115.615954 115.615955-105.105414-105.105413-105.105413 105.105413-84.441689-84.441689V171.489992h433.854125v140.126537h144.183606z" fill="#3E4DA8" p-id="5666"></path><path d="M127.608482 669.016977V36.051157h467.950322l50.87102 51.312463h57.850019L616.937245 0.021021H91.599368v683.983988l153.664114 153.664114 0.126127-0.126126v-50.955105l-0.126127 0.126127z" fill="#FBC773" p-id="5667"></path><path d="M440.906698 352.859894h175.063577v42.063186h-175.063577z" fill="#FBC773" p-id="5668"></path><path d="M440.906698 467.235604h368.205284v42.063187H440.906698z" fill="#FBC773" p-id="5669"></path><path d="M440.906698 581.611315h368.205284v42.063187H440.906698z" fill="#FBC773" p-id="5670"></path><path d="M440.906698 696.008047h368.205284v42.063187H440.906698z" fill="#FBC773" p-id="5671"></path></svg>