<?xml version="1.0" standalone="no"?><!DOCTYPE svg PUBLIC "-//W3C//DTD SVG 1.1//EN" "http://www.w3.org/Graphics/SVG/1.1/DTD/svg11.dtd"><svg t="1563262107181" class="icon" viewBox="0 0 1024 1024" version="1.1" xmlns="http://www.w3.org/2000/svg" p-id="3031" xmlns:xlink="http://www.w3.org/1999/xlink" width="200" height="200"><defs><style type="text/css"></style></defs><path d="M512.032002 1023.976745c-136.79737 0-265.402259-53.251129-362.047937-149.982144A508.424537 508.424537 0 0 1 0.00192 512.032002c0-136.754701 53.251129-265.35959 149.982145-362.047937A508.680552 508.680552 0 0 1 512.032002 0.00192c136.712032 0 265.316921 53.251129 362.047937 149.982145 96.731016 96.688347 150.024814 225.293236 150.024814 362.047937 0 136.712032-53.293798 265.274252-150.00348 361.983933A508.680552 508.680552 0 0 1 512.032002 1023.976745zM512.032002 42.671094C253.243465 42.671094 42.671094 253.243465 42.671094 512.032002s210.572371 469.360908 469.360908 469.360908 469.360908-210.572371 469.360908-469.360908S770.820539 42.671094 512.032002 42.671094z" fill="#3E4DA8" p-id="3032"></path><path d="M255.995626 767.961704a21.334587 21.334587 0 0 1-21.334586-21.334586v-426.691735a21.334587 21.334587 0 0 1 21.334586-21.334587h512.030082a21.334587 21.334587 0 0 1 21.334587 21.334587v426.691735a21.334587 21.334587 0 0 1-21.334587 21.334586z m21.334587-42.669173h469.360908v-170.676694h-469.360908z m469.360908-213.345867v-170.676694h-469.360908v170.676694z m-298.684214 149.342107v-42.669174h256.015041v42.669174z m106.672934-213.345868v-42.669173h149.342107v42.669173z" fill="#FBC773" p-id="3033"></path></svg>