<?xml version="1.0" standalone="no"?><!DOCTYPE svg PUBLIC "-//W3C//DTD SVG 1.1//EN" "http://www.w3.org/Graphics/SVG/1.1/DTD/svg11.dtd"><svg t="1556012337819" class="icon" style="" viewBox="0 0 1024 1024" version="1.1" xmlns="http://www.w3.org/2000/svg" p-id="2368" xmlns:xlink="http://www.w3.org/1999/xlink" width="200" height="200"><defs><style type="text/css"></style></defs><path d="M227.058526 759.188211h78.147369a51.900632 51.900632 0 0 0 51.900631-51.900632v-224.229053A51.900632 51.900632 0 0 0 305.205895 431.157895h-78.147369a51.900632 51.900632 0 0 0-51.927579 51.900631v224.229053a51.900632 51.900632 0 0 0 51.927579 51.900632z m5.766737-274.108632h66.56a3.745684 3.745684 0 0 1 3.745684 3.745684v212.695579a3.745684 3.745684 0 0 1-3.745684 3.745684H232.825263a3.745684 3.745684 0 0 1-3.745684-3.745684V488.825263a3.745684 3.745684 0 0 1 3.772632-3.745684z" fill="#1189F9" p-id="2369"></path><path d="M471.282526 759.188211h78.147369a51.900632 51.900632 0 0 0 51.900631-51.900632V348.321684A51.900632 51.900632 0 0 0 549.429895 296.421053h-78.147369a51.900632 51.900632 0 0 0-51.900631 51.900631v358.965895a51.900632 51.900632 0 0 0 51.900631 51.900632z m5.766737-408.845474h66.586948a3.745684 3.745684 0 0 1 3.745684 3.745684v347.432421a3.745684 3.745684 0 0 1-3.745684 3.745684h-66.586948a3.745684 3.745684 0 0 1-3.745684-3.745684V354.088421a3.745684 3.745684 0 0 1 3.745684-3.745684z" fill="#1189F9" p-id="2370"></path><path d="M791.929263 188.631579h-78.147368a51.900632 51.900632 0 0 0-51.900632 51.900632v466.755368a51.900632 51.900632 0 0 0 51.900632 51.900632h78.147368a51.900632 51.900632 0 0 0 51.900632-51.900632V240.532211A51.900632 51.900632 0 0 0 791.929263 188.631579z m-5.766737 516.634947h-66.586947a3.745684 3.745684 0 0 1-3.745684-3.745684V246.298947a3.745684 3.745684 0 0 1 3.745684-3.745684h66.586947a3.745684 3.745684 0 0 1 3.745685 3.745684v455.221895a3.745684 3.745684 0 0 1-3.745685 3.745684z" fill="#1189F9" p-id="2371"></path><path d="M830.356211 802.088421H188.658526a26.947368 26.947368 0 1 0 0 53.894737h641.697685a26.947368 26.947368 0 0 0 0-53.894737z" fill="#1189F9" p-id="2372"></path></svg>