<svg xmlns="http://www.w3.org/2000/svg" width="200" height="200" viewBox="0 0 200 200">
  <defs>
    <style>
      .cls-1 {
        fill: #fff;
        opacity: 0;
      }

      .cls-2, .cls-7, .cls-8 {
        fill: none;
      }

      .cls-3, .cls-6 {
        fill: #fbfbfb;
      }

      .cls-10, .cls-4, .cls-5 {
        fill: #ececec;
      }

      .cls-5 {
        opacity: 0.41;
      }

      .cls-7, .cls-8 {
        stroke: #ececec;
        stroke-width: 2px;
      }

      .cls-8 {
        stroke-linecap: round;
        stroke-linejoin: round;
      }

      .cls-10, .cls-9 {
        stroke: none;
      }
    </style>
  </defs>
  <g id="组_1656" data-name="组 1656" transform="translate(-701 -397)">
    <rect id="矩形_3972" data-name="矩形 3972" class="cls-1" width="200" height="200" transform="translate(701 397.001)"/>
    <g id="组_1581" data-name="组 1581" transform="translate(-23 -17.802)">
      <g id="组_15" data-name="组 15" transform="translate(752 427.803)">
        <g id="路径_18" data-name="路径 18" class="cls-2" transform="translate(0 72.197)">
          <path class="cls-9" d="M23.6-72.2H88.4s23.556,42.919,23.556,46.011V33.149a5.6,5.6,0,0,1-5.6,5.6H5.6a5.6,5.6,0,0,1-5.6-5.6V-26.186C0-29.277,23.6-72.2,23.6-72.2Z"/>
          <path class="cls-10" d="M 24.78596496582031 -70.19672393798828 C 23.20158386230469 -67.3045654296875 18.54725646972656 -58.78368377685547 13.87741088867188 -49.99639129638672 C 10.52130889892578 -43.68119049072266 7.814971923828125 -38.46800994873047 5.833610534667969 -34.50165939331055 C 2.640769958496094 -28.1102294921875 2.091728210449219 -26.47189331054688 1.999992370605469 -26.07791709899902 L 1.999992370605469 33.14936065673828 C 1.999992370605469 35.13312530517578 3.6138916015625 36.74702453613281 5.597640991210938 36.74702453613281 L 106.3552932739258 36.74702453613281 C 108.3390426635742 36.74702453613281 109.9529418945313 35.13312530517578 109.9529418945313 33.14936065673828 L 109.9529418945313 -26.078369140625 C 109.8616333007813 -26.4717903137207 109.3143310546875 -28.109130859375 106.1271209716797 -34.50180816650391 C 104.1496429443359 -38.46810913085938 101.4485397338867 -43.68137359619141 98.09883880615234 -49.99679183959961 C 93.43861389160156 -58.7830810546875 88.79380035400391 -67.30314636230469 87.21173095703125 -70.19672393798828 L 24.78596496582031 -70.19672393798828 M 23.60189056396484 -72.19672393798828 L 88.39691162109375 -72.19672393798828 C 88.39691162109375 -72.19672393798828 111.9529418945313 -29.27730941772461 111.9529418945313 -26.1858081817627 L 111.9529418945313 33.14936065673828 C 111.9529418945313 36.24087524414063 109.4467926025391 38.74702453613281 106.3552932739258 38.74702453613281 L 5.597640991210938 38.74702453613281 C 2.506141662597656 38.74702453613281 -7.62939453125e-06 36.24087524414063 -7.62939453125e-06 33.14936065673828 L -7.62939453125e-06 -26.1858081817627 C -7.62939453125e-06 -29.27730941772461 23.60189056396484 -72.19672393798828 23.60189056396484 -72.19672393798828 Z"/>
        </g>
        <path id="路径_19" data-name="路径 19" class="cls-3" d="M.13.744,19.751.469V59.895l-1.379-1.12-1.257,1.12-1.536-1.12-1.385,1.12-1.415-1.12-1.506,1.12-1.415-1.12-1.385,1.12-1.355-1.12L5.67,59.895l-1.415-1.12-1.385,1.12-1.385-1.12L0,59.895Z" transform="translate(45.341 1.23)"/>
        <rect id="矩形_44" data-name="矩形 44" class="cls-4" width="108.594" height="2" transform="translate(1.679 45.451)"/>
        <rect id="矩形_45" data-name="矩形 45" class="cls-4" width="44.781" height="1" transform="translate(54.577 45.731) rotate(-90)"/>
        <g id="组_13" data-name="组 13" transform="translate(21.831 67.842)">
          <rect id="矩形_46" data-name="矩形 46" class="cls-4" width="2.239" height="24.63" rx="1.12" transform="translate(0 0)"/>
          <rect id="矩形_47" data-name="矩形 47" class="cls-4" width="5.598" height="24.63" rx="2" transform="translate(3.918 0)"/>
          <rect id="矩形_48" data-name="矩形 48" class="cls-4" width="5.598" height="24.63" rx="2" transform="translate(17.353 0)"/>
          <rect id="矩形_49" data-name="矩形 49" class="cls-4" width="5.598" height="24.63" rx="2" transform="translate(58.775 0)"/>
          <rect id="矩形_50" data-name="矩形 50" class="cls-4" width="2.239" height="24.63" rx="1.12" transform="translate(13.434 0)"/>
          <rect id="矩形_51" data-name="矩形 51" class="cls-4" width="2.239" height="24.63" rx="1.12" transform="translate(25.189 0)"/>
          <rect id="矩形_52" data-name="矩形 52" class="cls-4" width="2.799" height="24.63" rx="1.399" transform="translate(29.108 0)"/>
          <rect id="矩形_53" data-name="矩形 53" class="cls-4" width="2.799" height="24.63" rx="1.399" transform="translate(53.178 0)"/>
          <rect id="矩形_54" data-name="矩形 54" class="cls-4" width="2.239" height="24.63" rx="1.12" transform="translate(48.14 0)"/>
          <rect id="矩形_55" data-name="矩形 55" class="cls-4" width="2.239" height="24.63" rx="1.12" transform="translate(44.781 0)"/>
          <rect id="矩形_56" data-name="矩形 56" class="cls-4" width="7.837" height="24.63" rx="2" transform="translate(34.705 0)"/>
          <rect id="矩形_57" data-name="矩形 57" class="cls-4" width="2.799" height="24.63" rx="1.399" transform="translate(66.612 0)"/>
        </g>
        <rect id="矩形_58" data-name="矩形 58" class="cls-4" width="76.688" height="1.12" rx="0.56" transform="translate(18.472 80.157)"/>
      </g>
      <g id="组_20" data-name="组 20" transform="translate(770.099 508.129)">
        <path id="路径_25" data-name="路径 25" class="cls-5" d="M2058.129,337.958l-29.294-4.292h-76.5l79.673,21.458Z" transform="translate(-1952.333 -333.463)"/>
        <g id="组_14" data-name="组 14" transform="translate(72.653 0)">
          <g id="路径_20" data-name="路径 20" class="cls-6" transform="translate(-2207.124 -310.302)">
            <path class="cls-9" d="M 2242.190185546875 356.4682312011719 C 2242.189697265625 356.4682312011719 2242.190185546875 356.4682312011719 2242.189697265625 356.4682312011719 C 2241.73779296875 356.4682312011719 2241.3291015625 356.4375915527344 2240.974609375 356.377197265625 C 2238.743896484375 355.9969177246094 2232.1640625 352.6275634765625 2224.601806640625 347.9929504394531 C 2217.35400390625 343.5510864257813 2211.358154296875 339.2477111816406 2210.344970703125 337.760498046875 C 2209.369873046875 336.3289794921875 2208.7109375 334.0317077636719 2208.38623046875 330.9324340820313 C 2208.099853515625 328.1991271972656 2208.108642578125 325.2386779785156 2208.1396484375 322.6783752441406 C 2208.16064453125 320.9305114746094 2208.71826171875 319.331787109375 2209.79638671875 317.9266662597656 C 2210.500244140625 317.0094909667969 2211.2353515625 316.437744140625 2211.56103515625 316.2210693359375 L 2211.78564453125 316.1022338867188 C 2218.48974609375 312.5551452636719 2235.571044921875 311.3023071289063 2239.3310546875 311.3023071289063 C 2239.5546875 311.3023071289063 2239.660400390625 311.3076782226563 2239.703369140625 311.3108520507813 C 2240.72509765625 311.3865356445313 2242.88134765625 312.1562805175781 2245.84912109375 316.4576110839844 C 2247.529296875 319.0505676269531 2250.41064453125 324.66064453125 2252.861083984375 330.1098327636719 C 2255.798828125 336.64306640625 2257.77734375 342.1345520019531 2258.289306640625 345.1762084960938 C 2258.82080078125 348.3333740234375 2258.58056640625 350.0749816894531 2258.285400390625 350.9800720214844 C 2258.018310546875 351.7991943359375 2257.672607421875 352.0454406738281 2257.616943359375 352.0807189941406 L 2257.597900390625 352.0891418457031 C 2257.499267578125 352.1329345703125 2247.6650390625 356.4682312011719 2242.190185546875 356.4682312011719 Z"/>
            <path class="cls-10" d="M 2239.330810546875 312.3023071289063 C 2237.885986328125 312.3023071289063 2232.75927734375 312.5650939941406 2226.937255859375 313.3459777832031 C 2220.098388671875 314.26318359375 2215.020751953125 315.5219421386719 2212.253173828125 316.9861450195313 L 2212.096923828125 317.06884765625 C 2211.6025390625 317.4124450683594 2209.180908203125 319.2743835449219 2209.139404296875 322.6903991699219 C 2209.091796875 326.6478576660156 2209.003173828125 334.0141906738281 2211.17138671875 337.1975402832031 C 2211.284912109375 337.3638610839844 2212.04296875 338.33154296875 2215.8505859375 341.0547180175781 C 2218.38525390625 342.8674621582031 2221.6787109375 345.0287170410156 2225.124267578125 347.1403503417969 C 2232.4716796875 351.6431884765625 2239.05859375 355.0361633300781 2241.142578125 355.3914184570313 C 2241.441650390625 355.4423828125 2241.7939453125 355.4682312011719 2242.189697265625 355.4682312011719 C 2244.3173828125 355.4682312011719 2247.561767578125 354.7377319335938 2251.571533203125 353.3556823730469 C 2254.298583984375 352.4158630371094 2256.53173828125 351.4623107910156 2257.069091796875 351.2289733886719 C 2257.14453125 351.1302185058594 2257.32177734375 350.8453674316406 2257.453125 350.2197875976563 C 2257.622802734375 349.4097900390625 2257.734619140625 347.9060974121094 2257.30322265625 345.3421936035156 C 2256.8046875 342.3811340332031 2254.853271484375 336.9786071777344 2251.948974609375 330.5199279785156 C 2249.52099609375 325.1204223632813 2246.674560546875 319.5741882324219 2245.017822265625 317.0136413574219 C 2243.8818359375 315.3689575195313 2242.769775390625 314.1197204589844 2241.7119140625 313.3003234863281 C 2240.723388671875 312.5345153808594 2240.033935546875 312.3380737304688 2239.62939453125 312.3081359863281 C 2239.626220703125 312.3078918457031 2239.548583984375 312.3023071289063 2239.331298828125 312.3023071289063 L 2239.3310546875 312.3023071289063 L 2239.330810546875 312.3023071289063 M 2239.3310546875 310.3023071289063 C 2239.526611328125 310.3023071289063 2239.677001953125 310.30615234375 2239.77734375 310.3135986328125 C 2241.645751953125 310.4519653320313 2244.033203125 312.0609130859375 2246.680419921875 315.9017028808594 C 2250.001953125 321.02099609375 2258.07421875 337.874267578125 2259.275390625 345.0102233886719 C 2260.4765625 352.146240234375 2258.003662109375 353.003173828125 2258.003662109375 353.003173828125 C 2258.003662109375 353.003173828125 2247.944580078125 357.4682312011719 2242.189697265625 357.4682312011719 C 2241.69384765625 357.4682312011719 2241.2294921875 357.4350280761719 2240.806640625 357.3629760742188 C 2235.478271484375 356.4546813964844 2211.9580078125 341.9047241210938 2209.5185546875 338.323486328125 C 2207.0791015625 334.7422485351563 2207.0791015625 327.6921997070313 2207.1396484375 322.6663208007813 C 2207.19970703125 317.7002563476563 2211.161376953125 315.2172546386719 2211.31396484375 315.2172546386719 C 2211.31591796875 315.2172546386719 2211.317138671875 315.2175903320313 2211.31787109375 315.2183227539063 C 2218.357421875 311.4938049316406 2235.88525390625 310.3022766113281 2239.3310546875 310.3023071289063 Z"/>
          </g>
          <path id="路径_21" data-name="路径 21" class="cls-7" d="M2257.722,328.857s-28.079,2.284-30.994,8.953c-.061-.061-2.327,4.7,2.119,17.136" transform="translate(-2219.204 -322.116)"/>
          <path id="路径_22" data-name="路径 22" class="cls-7" d="M2228.167,353.667s8.175,8.841,10.415,10.536,15.06,11.384,15.735,14.083a17.944,17.944,0,0,1,0,6.332" transform="translate(-2220.521 -337.912)"/>
          <path id="路径_23" data-name="路径 23" class="cls-8" d="M2258.659,427s.787,32.646-8.659,39.913c0,0,3.815,10.164,4.9,11.557.061.121,13.563-2.846,20.891-7.266,4.117-2.362,1.332-38.39,0-40.691" transform="translate(-2234.423 -384.602)"/>
          <path id="路径_24" data-name="路径 24" class="cls-7" d="M2272.575,433.333s1.189,27.43-8.742,49.108" transform="translate(-2243.23 -388.634)"/>
        </g>
      </g>
    </g>
  </g>
</svg>
