<?xml version="1.0" standalone="no"?><!DOCTYPE svg PUBLIC "-//W3C//DTD SVG 1.1//EN" "http://www.w3.org/Graphics/SVG/1.1/DTD/svg11.dtd"><svg t="1556012431966" class="icon" style="" viewBox="0 0 1024 1024" version="1.1" xmlns="http://www.w3.org/2000/svg" p-id="2876" xmlns:xlink="http://www.w3.org/1999/xlink" width="200" height="200"><defs><style type="text/css"></style></defs><path d="M511.488 377.936842a140.826947 140.826947 0 1 0 140.8 140.826947 140.826947 140.826947 0 0 0-140.8-140.826947z m0 228.136421a87.255579 87.255579 0 1 1 87.255579-87.282526 87.282526 87.282526 0 0 1-87.255579 87.282526z" fill="#1189F9" p-id="2877"></path><path d="M839.841684 577.967158l-46.349473-26.758737a251.661474 251.661474 0 0 0 0-64.91621l46.349473-26.758737a43.115789 43.115789 0 0 0 15.791158-58.933895l-69.712842-120.724211a43.115789 43.115789 0 0 0-58.933895-15.818105l-46.565052 26.947369a282.354526 282.354526 0 0 0-55.996632-32.525474V204.907789a43.115789 43.115789 0 0 0-43.115789-43.115789h-139.398737a43.115789 43.115789 0 0 0-43.11579 43.115789v53.571369a287.097263 287.097263 0 0 0-55.942737 32.552421l-46.618947-26.947368a43.115789 43.115789 0 0 0-58.933895 15.818105l-69.712842 120.72421a43.115789 43.115789 0 0 0 15.791158 58.933895l46.349474 26.785684a251.850105 251.850105 0 0 0 0 64.889263l-46.349474 26.758737a43.115789 43.115789 0 0 0-15.791158 58.960842l69.712842 120.724211a43.115789 43.115789 0 0 0 58.933895 15.791158l46.565053-26.947369a282.516211 282.516211 0 0 0 55.996631 32.525474v53.571368a43.115789 43.115789 0 0 0 43.11579 43.11579h139.398737a43.115789 43.115789 0 0 0 43.115789-43.11579V779.048421a282.408421 282.408421 0 0 0 55.996632-32.525474l46.565052 26.947369a43.115789 43.115789 0 0 0 58.933895-15.791158l69.712842-120.724211a43.115789 43.115789 0 0 0-15.791158-58.987789z m-95.232 143.386947l-69.901473-40.421052a230.157474 230.157474 0 0 1-69.12 47.238736c-2.155789 0.943158-4.176842 2.155789-6.386527 3.072a233.822316 233.822316 0 0 1-28.725895 9.674106v80.922947h-117.840842v-80.842105a235.277474 235.277474 0 0 1-28.725894-9.674105c-2.209684-0.916211-4.257684-2.128842-6.440421-3.125895a221.372632 221.372632 0 0 1-24.656843-12.719158 447.649684 447.649684 0 0 1-44.382315-34.465684l-47.750737 27.567158-22.177684 12.8-58.933895-102.049685 70.063158-40.421052a241.421474 241.421474 0 0 1-5.847579-28.429474c-0.970105-6.898526-1.266526-13.958737-1.616842-21.045895-0.161684-3.557053-0.727579-7.006316-0.727579-10.590315s0.565895-7.060211 0.727579-10.617264c0.350316-7.060211 0.646737-14.147368 1.616842-21.018947a241.502316 241.502316 0 0 1 5.847579-28.429474l-70.063158-40.421052 58.933895-102.076632 22.177684 12.826948 47.750737 27.54021a216.522105 216.522105 0 0 1 19.402105-17.057684 238.942316 238.942316 0 0 1 20.399158-14.309053 236.005053 236.005053 0 0 1 29.210947-15.791158c2.182737-0.997053 4.230737-2.209684 6.467369-3.125894a234.981053 234.981053 0 0 1 28.725894-9.674106v-80.842105h117.840842v80.922947a233.552842 233.552842 0 0 1 28.725895 9.674106c2.209684 0.916211 4.230737 2.101895 6.386527 3.072a230.292211 230.292211 0 0 1 69.12 47.211789l69.901473-40.421052 58.933895 102.076631-21.962105 12.692211-48.128 27.782736a240.397474 240.397474 0 0 1 5.847579 28.429474c0.997053 7.006316 1.320421 14.255158 1.643789 21.557895 0.161684 3.395368 0.727579 6.709895 0.727579 10.159158s-0.565895 6.736842-0.727579 10.159158c-0.323368 7.221895-0.646737 14.443789-1.643789 21.557894a235.061895 235.061895 0 0 1-5.766737 28.052211v0.377263l48.128 27.782737 21.962105 12.69221z" fill="#1189F9" p-id="2878"></path></svg>