<?xml version="1.0" standalone="no"?><!DOCTYPE svg PUBLIC "-//W3C//DTD SVG 1.1//EN" "http://www.w3.org/Graphics/SVG/1.1/DTD/svg11.dtd"><svg t="1563276271229" class="icon" viewBox="0 0 1024 1024" version="1.1" xmlns="http://www.w3.org/2000/svg" p-id="3322" xmlns:xlink="http://www.w3.org/1999/xlink" width="200" height="200"><defs><style type="text/css"></style></defs><path d="M447.96267 1023.914674a21.331556 21.331556 0 0 1-21.331556-21.331556V639.946671a21.331556 21.331556 0 0 1 21.331556-21.331556h127.989334v-42.663111a21.331556 21.331556 0 0 1 21.331556-21.331556h255.978668a21.331556 21.331556 0 0 1 21.331556 21.331556v42.663111h127.989334a21.331556 21.331556 0 0 1 21.331556 21.331556v362.636447a21.331556 21.331556 0 0 1-21.331556 21.331556z m21.331555-42.663112h511.957337V661.278227h-511.957337z m149.32089-362.636447h213.315557v-21.331555h-213.315557z m0 191.984002a106.657779 106.657779 0 1 1 106.657779 106.657778 106.785768 106.785768 0 0 1-106.657779-106.657778z m42.663112 0a63.994667 63.994667 0 1 0 63.994667-63.994667 63.994667 63.994667 0 0 0-63.994667 63.994667z" fill="#FBC773" p-id="3323"></path><path d="M362.67911 981.251562H192.026664a85.454212 85.454212 0 0 1-85.326222-85.326222V191.984001a85.454212 85.454212 0 0 1 85.326222-85.326222h703.941339a85.326223 85.326223 0 0 1 85.326222 85.326222v298.64178h-42.663111V191.984001a42.663111 42.663111 0 0 0-42.663111-42.663111H192.026664a42.663111 42.663111 0 0 0-42.663111 42.663111v703.941339a42.663111 42.663111 0 0 0 42.663111 42.663111h170.652446v42.663111z" fill="#3E4DA8" p-id="3324"></path></svg>