<?xml version="1.0" standalone="no"?><!DOCTYPE svg PUBLIC "-//W3C//DTD SVG 1.1//EN" "http://www.w3.org/Graphics/SVG/1.1/DTD/svg11.dtd"><svg t="1556011236550" class="icon" style="" viewBox="0 0 1024 1024" version="1.1" xmlns="http://www.w3.org/2000/svg" p-id="1829" xmlns:xlink="http://www.w3.org/1999/xlink" width="200" height="200"><defs><style type="text/css"></style></defs><path d="M830.625684 405.450105L544.821895 147.779368a47.966316 47.966316 0 0 0-65.751579 0L193.266526 405.261474a100.540632 100.540632 0 0 0-31.63621 73.216v263.114105a146.701474 146.701474 0 0 0 146.728421 146.701474h407.201684a146.701474 146.701474 0 0 0 146.701474-146.701474v-262.952421a100.540632 100.540632 0 0 0-31.636211-73.189053z m-23.093895 340.506948a87.659789 87.659789 0 0 1-87.659789 87.659789H303.184842a87.632842 87.632842 0 0 1-87.659789-87.659789v-268.045474a43.951158 43.951158 0 0 1 13.877894-32.067368l264.084211-237.136843a26.758737 26.758737 0 0 1 36.729263 0l263.410526 237.136843a44.085895 44.085895 0 0 1 13.824 32.040421z" fill="#1189F9" p-id="1830"></path><path d="M700.631579 688.262737H323.368421a26.947368 26.947368 0 1 0 0 53.894737h377.263158a26.947368 26.947368 0 1 0 0-53.894737z" fill="#1189F9" p-id="1831"></path><path d="M700.631579 566.999579H323.368421a26.947368 26.947368 0 1 0 0 53.894737h377.263158a26.947368 26.947368 0 1 0 0-53.894737z" fill="#1189F9" p-id="1832"></path></svg>