<?xml version="1.0" standalone="no"?><!DOCTYPE svg PUBLIC "-//W3C//DTD SVG 1.1//EN" "http://www.w3.org/Graphics/SVG/1.1/DTD/svg11.dtd"><svg t="1565146048724" class="icon" viewBox="0 0 1024 1024" version="1.1" xmlns="http://www.w3.org/2000/svg" p-id="5926" xmlns:xlink="http://www.w3.org/1999/xlink" width="200" height="200"><defs><style type="text/css"></style></defs><path d="M889.066667 602.432l60.266666-60.266667-58.666666-58.666666 53.866666-53.866667-74.666666-74.538667H118.336A75.669333 75.669333 0 0 0 42.666667 430.784v488.533333a75.669333 75.669333 0 0 0 75.669333 75.669334h730.197333l42.666667-42.666667 53.333333-53.333333-58.666666-58.666667 60.266666-60.266667-58.666666-58.666666 60.266666-60.266667z m-60.373334 0l58.666667 58.666667-60.266667 60.266666 58.666667 58.666667-60.266667 60.266667 58.666667 58.666666-53.333333 53.333334H127.466667A42.154667 42.154667 0 0 1 85.333333 910.144V439.936a42.154667 42.154667 0 0 1 42.133334-42.154667H852.266667l31.829333 31.850667-53.866667 53.866667 58.666667 58.666666z" fill="#FBC773" p-id="5927"></path><path d="M686.677333 441.386667a21.333333 21.333333 0 0 0-21.333333 21.333333v40.533333a21.333333 21.333333 0 0 0 42.666667 0v-40.533333a21.333333 21.333333 0 0 0-21.333334-21.333333z" fill="#FBC773" p-id="5928"></path><path d="M686.677333 569.386667a21.333333 21.333333 0 0 0-21.333333 21.333333v40.533333a21.333333 21.333333 0 0 0 42.666667 0v-40.533333a21.333333 21.333333 0 0 0-21.333334-21.333333z" fill="#FBC773" p-id="5929"></path><path d="M686.677333 697.386667a21.333333 21.333333 0 0 0-21.333333 21.333333v40.533333a21.333333 21.333333 0 0 0 42.666667 0v-40.533333a21.333333 21.333333 0 0 0-21.333334-21.333333z" fill="#FBC773" p-id="5930"></path><path d="M686.677333 825.386667a21.333333 21.333333 0 0 0-21.333333 21.333333v40.533333a21.333333 21.333333 0 0 0 42.666667 0v-40.533333a21.333333 21.333333 0 0 0-21.333334-21.333333z" fill="#FBC773" p-id="5931"></path><path d="M226.837333 222.08a42.154667 42.154667 0 0 1 54.976-23.018667l266.56 109.184h112.426667l-371.2-152.064a75.669333 75.669333 0 0 0-98.709333 41.344l-45.504 111.125334h46.144z" fill="#3E4DA8" p-id="5932"></path><path d="M442.944 103.701333a42.154667 42.154667 0 0 1 59.434667-4.416l206.570666 177.92 123.114667 49.685334L523.306667 60.949333a75.690667 75.690667 0 0 0-106.666667 7.957334l-57.706667 66.986666 41.813334 16.896z" fill="#3E4DA8" p-id="5933"></path><path d="M365.418667 671.466667h96.128v-42.666667h-71.68l66.133333-120.469333h-46.933333l-66.133334 120.469333h2.944l-66.133333-120.469333h-47.104l66.133333 120.469333h-76.8v42.666667h100.821334v33.877333h-98.474667v42.666667h98.474667v98.389333h42.666666v-98.474667h98.474667v-42.666666h-98.474667z" fill="#3E4DA8" p-id="5934"></path></svg>