<?xml version="1.0" standalone="no"?><!DOCTYPE svg PUBLIC "-//W3C//DTD SVG 1.1//EN" "http://www.w3.org/Graphics/SVG/1.1/DTD/svg11.dtd"><svg t="1565146045040" class="icon" viewBox="0 0 1024 1024" version="1.1" xmlns="http://www.w3.org/2000/svg" p-id="5796" xmlns:xlink="http://www.w3.org/1999/xlink" width="200" height="200"><defs><style type="text/css"></style></defs><path d="M725.653333 42.666667H128v810.453333l157.184 157.205333 119.616-119.637333 120.853333 120.853333 132.010667-131.989333 116.970667 116.970667 124.437333-124.416V216.064z m12.394667 72.768l84.608 84.608h-84.650667z m118.336 738.986666l-81.749333 81.728-116.970667-116.970666-132.010667 131.989333-120.853333-120.853333-119.616 119.616-114.496-114.496V85.354667h524.650667v157.376h161.024z" fill="#3E4DA8" p-id="5797"></path><path d="M300.864 326.421333h205.546667v42.688h-205.546667z" fill="#FBC773" p-id="5798"></path><path d="M298.666667 426.666667h426.666666v42.688H298.666667z" fill="#FBC773" p-id="5799"></path><path d="M298.666667 533.333333h426.666666v42.688H298.666667z" fill="#FBC773" p-id="5800"></path><path d="M298.666667 640h426.666666v42.688H298.666667z" fill="#FBC773" p-id="5801"></path></svg>