<?xml version="1.0" standalone="no"?><!DOCTYPE svg PUBLIC "-//W3C//DTD SVG 1.1//EN" "http://www.w3.org/Graphics/SVG/1.1/DTD/svg11.dtd"><svg t="1558598342127" class="icon" style="" viewBox="0 0 1024 1024" version="1.1" xmlns="http://www.w3.org/2000/svg" p-id="4900" xmlns:xlink="http://www.w3.org/1999/xlink" width="200" height="200"><defs><style type="text/css"></style></defs><path d="M511.36512 694.20032A236.36992 236.36992 0 1 0 274.9952 457.8304a236.36992 236.36992 0 0 0 236.36992 236.36992z m0-431.79008A195.40992 195.40992 0 1 1 315.9552 457.8304a195.42016 195.42016 0 0 1 195.40992-195.4304z" fill="#DBE7FD" p-id="4901"></path><path d="M478.02368 420.17792l32.91136-17.3056 32.91136 17.3056-6.28736-36.64896 26.624-25.94816-36.79232-5.34528-16.45568-33.34144-16.45568 33.34144-36.79232 5.34528 26.624 25.94816z" fill="#DBE7FD" p-id="4902"></path><path d="M406.528 413.19424l8.71424 19.02592 9.80992-18.49344 20.7872-2.4064-14.55104-15.04256 4.096-20.48-18.80064 9.216-18.23744-10.24 2.93888 20.72576-15.36 14.16192z" fill="#DBE7FD" p-id="4903"></path><path d="M437.88288 483.60448l20.84864 1.88416 10.24 18.23744 8.192-19.24096 20.48-4.096-15.75936-13.7728 2.41664-20.7872-17.9712 10.73152-19.02592-8.72448 4.64896 20.40832z" fill="#DBE7FD" p-id="4904"></path><path d="M597.39136 413.73696l9.80992 18.49344 8.71424-19.02592 20.61312-3.61472-15.36-14.16192 2.92864-20.72576-18.2272 10.24-18.80064-9.216 4.096 20.48-14.55104 15.04256z" fill="#DBE7FD" p-id="4905"></path><path d="M556.02176 456.51968l-17.9712-10.73152 2.41664 20.7872-15.75936 13.7728 20.48 4.096 8.192 19.24096 10.24-18.23744 20.8384-1.88416-14.17216-15.36 4.64896-20.40832z" fill="#DBE7FD" p-id="4906"></path><path d="M604.16 533.1456H419.1744a20.48 20.48 0 0 0 0 40.96H604.16a20.48 20.48 0 0 0 0-40.96z" fill="#DBE7FD" p-id="4907"></path><path d="M878.21312 877.4144l-24.1152-204.93312a25.84576 25.84576 0 0 0-25.67168-22.82496h-42.57792a334.92992 334.92992 0 1 0-548.9664 0h-43.52a25.86624 25.86624 0 0 0-25.68192 22.82496l-24.10496 204.93312a29.83936 29.83936 0 0 0 29.696 33.32096h125.184a26.08128 26.08128 0 0 0 15.616-5.19168l39.77216-29.75744h314.20416l39.77216 29.75744a26.08128 26.08128 0 0 0 15.616 5.19168h125.184a29.83936 29.83936 0 0 0 29.5936-33.32096zM511.36512 163.84A293.96992 293.96992 0 1 1 217.3952 457.82016 293.98016 293.98016 0 0 1 511.36512 163.84z m216.97536 705.93536l-41.66656-31.3344a17.98144 17.98144 0 0 0-10.82368-3.61472H345.92768a17.98144 17.98144 0 0 0-10.81344 3.61472l-41.66656 31.3344H185.42592l21.08416-179.2h64.17408a334.65344 334.65344 0 0 0 481.36192 0h63.232l21.08416 179.2z" fill="#DBE7FD" p-id="4908"></path></svg>