<?xml version="1.0" standalone="no"?><!DOCTYPE svg PUBLIC "-//W3C//DTD SVG 1.1//EN" "http://www.w3.org/Graphics/SVG/1.1/DTD/svg11.dtd"><svg t="1556012297137" class="icon" style="" viewBox="0 0 1024 1024" version="1.1" xmlns="http://www.w3.org/2000/svg" p-id="2113" xmlns:xlink="http://www.w3.org/1999/xlink" width="200" height="200"><defs><style type="text/css"></style></defs><path d="M552.286316 575.865263a346.624 346.624 0 0 0-40.55579-33.953684 171.277474 171.277474 0 1 0-253.763368 0.161684 347.971368 347.971368 0 0 0-40.421053 33.792c-8.704 8.623158-16.626526 16.707368-19.321263 19.833263a260.608 260.608 0 0 0-63.568842 170.60379v13.850947a90.570105 90.570105 0 0 0 95.312842 90.462316l144.437895-7.599158a194.021053 194.021053 0 0 1 20.938105 0l144.437895 7.599158a90.570105 90.570105 0 0 0 95.312842-90.462316v-13.850947a260.608 260.608 0 0 0-63.568842-170.60379 445.332211 445.332211 0 0 0-19.240421-19.833263z m-167.504842-266.509474a117.894737 117.894737 0 1 1-117.921685 117.894737 117.894737 117.894737 0 0 1 117.921685-117.894737z m154.677894 509.709474l-142.093473-8.865684a200.245895 200.245895 0 0 0-24.818527 0l-142.093473 8.865684a39.316211 39.316211 0 0 1-41.795369-39.235368 238.996211 238.996211 0 0 1 57.559579-155.567158c1.859368-2.155789 5.632-6.117053 10.374737-10.940632a347.621053 347.621053 0 0 1 43.951158-37.052631 170.469053 170.469053 0 0 0 168.636632 0 345.896421 345.896421 0 0 1 44.139789 37.160421c4.742737 4.823579 8.515368 8.811789 10.34779 10.940631a238.888421 238.888421 0 0 1 57.586526 155.567158 39.316211 39.316211 0 0 1-41.795369 39.127579z" fill="#1189F9" p-id="2114"></path><path d="M830.976 474.435368c-2.694737-3.125895-10.617263-11.210105-19.321263-19.833263a346.624 346.624 0 0 0-40.55579-33.953684 171.088842 171.088842 0 1 0-267.883789-211.644632A26.381474 26.381474 0 0 0 512 246.325895a26.947368 26.947368 0 0 0 35.947789-8.515369 117.921684 117.921684 0 1 1 96.202106 186.098527c-30.181053-3.557053-32.336842 18.189474-32.336842 18.189473s-10.428632 31.717053 32.336842 35.031579a170.118737 170.118737 0 0 0 84.399158-22.366316 345.896421 345.896421 0 0 1 44.139789 37.160422c4.742737 4.823579 8.515368 8.811789 10.34779 10.940631a239.023158 239.023158 0 0 1 57.586526 157.210947 38.858105 38.858105 0 0 1-41.795369 37.726316l-91.782736-5.712842a26.165895 26.165895 0 1 0-3.018106 52.250948l95.205053 5.01221a90.570105 90.570105 0 0 0 95.312842-90.462316v-13.850947a260.608 260.608 0 0 0-63.568842-170.60379z" fill="#1189F9" p-id="2115"></path></svg>