<?xml version="1.0" encoding="UTF-8"?>
<svg width="512px" height="288px" viewBox="0 0 512 288" version="1.1" xmlns="http://www.w3.org/2000/svg" xmlns:xlink="http://www.w3.org/1999/xlink">
    <!-- Generator: Sketch 52.5 (67469) - http://www.bohemiancoding.com/sketch -->
    <title>Page 1</title>
    <desc>Created with Sketch.</desc>
    <defs>
        <polygon id="path-1" points="0 288 512 288 512 0 0 0"></polygon>
    </defs>
    <g id="质量效能平台一期" stroke="none" stroke-width="1" fill="none" fill-rule="evenodd">
        <g id="切图" transform="translate(-674.000000, -215.000000)">
            <g id="Page-1" transform="translate(674.000000, 215.000000)">
                <path d="M131.7464,119.0188 C130.4674,119.0188 129.4264,120.0598 129.4264,121.3398 L129.4264,145.5928 C129.4264,146.8768 130.4714,147.9218 131.7554,147.9218 L324.3454,147.9218 C325.6294,147.9218 326.6744,146.8768 326.6744,145.5928 L326.6744,121.3478 C326.6744,120.0638 325.6294,119.0188 324.3454,119.0188 L131.7464,119.0188 Z M324.3454,149.9218 L131.7554,149.9218 C129.3684,149.9218 127.4264,147.9798 127.4264,145.5928 L127.4264,121.3398 C127.4264,118.9568 129.3644,117.0188 131.7464,117.0188 L324.3454,117.0188 C326.7314,117.0188 328.6744,118.9608 328.6744,121.3478 L328.6744,145.5928 C328.6744,147.9798 326.7314,149.9218 324.3454,149.9218 Z" id="Fill-3" fill="#CACBD0"></path>
                <path d="M135.9465,124.8137 C135.5895,124.8137 135.2865,125.1167 135.2865,125.4737 L135.2865,141.4597 C135.2865,141.8217 135.5925,142.1267 135.9545,142.1267 L320.1445,142.1267 C320.5075,142.1267 320.8135,141.8217 320.8135,141.4597 L320.8135,125.4817 C320.8135,125.1197 320.5075,124.8137 320.1445,124.8137 L135.9465,124.8137 Z M320.1445,144.1267 L135.9545,144.1267 C134.4835,144.1267 133.2865,142.9297 133.2865,141.4597 L133.2865,125.4737 C133.2865,124.0067 134.4795,122.8137 135.9465,122.8137 L320.1445,122.8137 C321.6165,122.8137 322.8135,124.0107 322.8135,125.4817 L322.8135,141.4597 C322.8135,142.9297 321.6165,144.1267 320.1445,144.1267 Z" id="Fill-5" fill="#CACBD0"></path>
                <path d="M131.7464,78.4592 C130.4674,78.4592 129.4264,79.5002 129.4264,80.7802 L129.4264,105.0322 C129.4264,106.3162 130.4714,107.3612 131.7554,107.3612 L324.3454,107.3612 C325.6294,107.3612 326.6744,106.3162 326.6744,105.0322 L326.6744,80.7882 C326.6744,79.5042 325.6294,78.4592 324.3454,78.4592 L131.7464,78.4592 Z M324.3454,109.3612 L131.7554,109.3612 C129.3684,109.3612 127.4264,107.4192 127.4264,105.0322 L127.4264,80.7802 C127.4264,78.3972 129.3644,76.4592 131.7464,76.4592 L324.3454,76.4592 C326.7314,76.4592 328.6744,78.4012 328.6744,80.7882 L328.6744,105.0322 C328.6744,107.4192 326.7314,109.3612 324.3454,109.3612 Z" id="Fill-7" fill="#CACBD0"></path>
                <path d="M135.9465,84.2531 C135.5895,84.2531 135.2865,84.5561 135.2865,84.9141 L135.2865,100.8991 C135.2865,101.2611 135.5925,101.5671 135.9545,101.5671 L320.1445,101.5671 C320.5075,101.5671 320.8135,101.2611 320.8135,100.8991 L320.8135,84.9221 C320.8135,84.5601 320.5075,84.2531 320.1445,84.2531 L135.9465,84.2531 Z M320.1445,103.5671 L135.9545,103.5671 C134.4835,103.5671 133.2865,102.3701 133.2865,100.8991 L133.2865,84.9141 C133.2865,83.4461 134.4795,82.2531 135.9465,82.2531 L320.1445,82.2531 C321.6165,82.2531 322.8135,83.4501 322.8135,84.9221 L322.8135,100.8991 C322.8135,102.3701 321.6165,103.5671 320.1445,103.5671 Z" id="Fill-9" fill="#CACBD0"></path>
                <path d="M149.5061,204.3986 C140.2731,204.3986 130.9261,202.3496 130.9261,198.4346 C130.9261,196.0706 134.6101,194.0736 138.0321,193.2186 C138.5671,193.0886 139.1101,193.4116 139.2451,193.9476 C139.3781,194.4836 139.0531,195.0266 138.5171,195.1606 C134.8461,196.0766 132.9261,197.7786 132.9261,198.4346 C132.9261,199.7806 138.7781,202.3986 149.5061,202.3986 C160.2351,202.3986 166.0871,199.7806 166.0871,198.4346 C166.0871,197.6056 164.6071,196.0506 160.5271,195.1676 C159.9861,195.0496 159.6441,194.5176 159.7611,193.9776 C159.8781,193.4366 160.4101,193.0946 160.9501,193.2116 C165.4191,194.1806 168.0871,196.1336 168.0871,198.4346 C168.0871,202.3496 158.7391,204.3986 149.5061,204.3986" id="Fill-11" fill="#CACBD0"></path>
                <path d="M139.2747,149.9221 L139.2747,193.7591 C139.2747,194.8161 140.6037,196.5881 149.5057,196.5881 C158.4097,196.5881 159.7387,194.8161 159.7387,193.7591 L159.7387,149.9221 L139.2747,149.9221 Z M149.5057,198.5881 C144.2547,198.5881 137.2747,198.0871 137.2747,193.7591 L137.2747,148.9221 C137.2747,148.3691 137.7217,147.9221 138.2747,147.9221 L160.7387,147.9221 C161.2917,147.9221 161.7387,148.3691 161.7387,148.9221 L161.7387,193.7591 C161.7387,198.0871 154.7567,198.5881 149.5057,198.5881 Z" id="Fill-13" fill="#CACBD0"></path>
                <path d="M139.2747,76.4592 L159.7387,76.4592 L159.7387,60.5602 C159.7387,58.9802 158.4347,57.6962 156.8317,57.6962 L142.1807,57.6962 C140.5787,57.6962 139.2747,58.9802 139.2747,60.5602 L139.2747,76.4592 Z M160.7387,78.4592 L138.2747,78.4592 C137.7217,78.4592 137.2747,78.0122 137.2747,77.4592 L137.2747,60.5602 C137.2747,57.8782 139.4757,55.6962 142.1807,55.6962 L156.8317,55.6962 C159.5377,55.6962 161.7387,57.8782 161.7387,60.5602 L161.7387,77.4592 C161.7387,78.0122 161.2917,78.4592 160.7387,78.4592 Z" id="Fill-15" fill="#CACBD0"></path>
                <mask id="mask-2" fill="white">
                    <use xlink:href="#path-1"></use>
                </mask>
                <g id="Clip-18"></g>
                <path d="M139.275,117.019 L159.739,117.019 L159.739,109.362 L139.275,109.362 L139.275,117.019 Z M160.739,119.019 L138.275,119.019 C137.722,119.019 137.275,118.571 137.275,118.019 L137.275,108.362 C137.275,107.809 137.722,107.362 138.275,107.362 L160.739,107.362 C161.291,107.362 161.739,107.809 161.739,108.362 L161.739,118.019 C161.739,118.571 161.291,119.019 160.739,119.019 Z" id="Fill-17" fill="#CACBD0" mask="url(#mask-2)"></path>
                <path d="M306.593,204.3986 C297.36,204.3986 288.013,202.3496 288.013,198.4346 C288.013,196.0706 291.697,194.0736 295.119,193.2186 C295.652,193.0886 296.197,193.4116 296.332,193.9476 C296.465,194.4836 296.14,195.0266 295.604,195.1606 C291.933,196.0766 290.013,197.7786 290.013,198.4346 C290.013,199.7806 295.865,202.3986 306.593,202.3986 C317.322,202.3986 323.174,199.7806 323.174,198.4346 C323.174,197.6056 321.694,196.0506 317.614,195.1676 C317.073,195.0496 316.731,194.5176 316.848,193.9776 C316.965,193.4366 317.497,193.0946 318.037,193.2116 C322.506,194.1806 325.174,196.1336 325.174,198.4346 C325.174,202.3496 315.826,204.3986 306.593,204.3986" id="Fill-19" fill="#CACBD0" mask="url(#mask-2)"></path>
                <path d="M296.3616,149.9221 L296.3616,193.7591 C296.3616,194.8161 297.6906,196.5881 306.5926,196.5881 C315.4966,196.5881 316.8256,194.8161 316.8256,193.7591 L316.8256,149.9221 L296.3616,149.9221 Z M306.5926,198.5881 C301.3416,198.5881 294.3616,198.0871 294.3616,193.7591 L294.3616,148.9221 C294.3616,148.3691 294.8086,147.9221 295.3616,147.9221 L317.8256,147.9221 C318.3786,147.9221 318.8256,148.3691 318.8256,148.9221 L318.8256,193.7591 C318.8256,198.0871 311.8436,198.5881 306.5926,198.5881 Z" id="Fill-20" fill="#CACBD0" mask="url(#mask-2)"></path>
                <path d="M296.3616,76.4592 L316.8256,76.4592 L316.8256,60.5602 C316.8256,58.9802 315.5216,57.6962 313.9186,57.6962 L299.2676,57.6962 C297.6656,57.6962 296.3616,58.9802 296.3616,60.5602 L296.3616,76.4592 Z M317.8256,78.4592 L295.3616,78.4592 C294.8086,78.4592 294.3616,78.0122 294.3616,77.4592 L294.3616,60.5602 C294.3616,57.8782 296.5626,55.6962 299.2676,55.6962 L313.9186,55.6962 C316.6246,55.6962 318.8256,57.8782 318.8256,60.5602 L318.8256,77.4592 C318.8256,78.0122 318.3786,78.4592 317.8256,78.4592 Z" id="Fill-21" fill="#CACBD0" mask="url(#mask-2)"></path>
                <path d="M296.362,117.019 L316.826,117.019 L316.826,109.362 L296.362,109.362 L296.362,117.019 Z M317.825,119.019 L295.362,119.019 C294.809,119.019 294.362,118.571 294.362,118.019 L294.362,108.362 C294.362,107.809 294.809,107.362 295.362,107.362 L317.825,107.362 C318.378,107.362 318.825,107.809 318.825,108.362 L318.825,118.019 C318.825,118.571 318.378,119.019 317.825,119.019 Z" id="Fill-22" fill="#CACBD0" mask="url(#mask-2)"></path>
                <polygon id="Fill-23" fill="#EFEFEF" mask="url(#mask-2)" points="160.7386 123.8133 148.0416 123.8133 138.2746 143.1273 150.9716 143.1273"></polygon>
                <path d="M139.9007,142.1272 L150.3567,142.1272 L159.1127,124.8142 L148.6567,124.8142 L139.9007,142.1272 Z M150.9717,144.1272 L138.2747,144.1272 C137.9267,144.1272 137.6047,143.9462 137.4227,143.6502 C137.2407,143.3552 137.2257,142.9852 137.3817,142.6762 L147.1487,123.3622 C147.3187,123.0252 147.6647,122.8142 148.0417,122.8142 L160.7387,122.8142 C161.0867,122.8142 161.4087,122.9942 161.5897,123.2902 C161.7727,123.5862 161.7877,123.9552 161.6307,124.2652 L151.8647,143.5782 C151.6947,143.9152 151.3487,144.1272 150.9717,144.1272 Z" id="Fill-24" fill="#CACBD0" mask="url(#mask-2)"></path>
                <polygon id="Fill-25" fill="#EFEFEF" mask="url(#mask-2)" points="187.1097 123.8133 174.4127 123.8133 164.6457 143.1273 177.3427 143.1273"></polygon>
                <path d="M166.2717,142.1272 L176.7277,142.1272 L185.4837,124.8142 L175.0277,124.8142 L166.2717,142.1272 Z M177.3427,144.1272 L164.6457,144.1272 C164.2977,144.1272 163.9757,143.9462 163.7937,143.6502 C163.6117,143.3552 163.5967,142.9852 163.7527,142.6762 L173.5197,123.3622 C173.6897,123.0252 174.0357,122.8142 174.4127,122.8142 L187.1097,122.8142 C187.4577,122.8142 187.7797,122.9942 187.9607,123.2902 C188.1437,123.5862 188.1587,123.9552 188.0017,124.2652 L178.2357,143.5782 C178.0657,143.9152 177.7197,144.1272 177.3427,144.1272 Z" id="Fill-26" fill="#CACBD0" mask="url(#mask-2)"></path>
                <polygon id="Fill-27" fill="#EFEFEF" mask="url(#mask-2)" points="213.4807 123.8133 200.7837 123.8133 191.0167 143.1273 203.7137 143.1273"></polygon>
                <path d="M192.6428,142.1272 L203.0988,142.1272 L211.8548,124.8142 L201.3988,124.8142 L192.6428,142.1272 Z M203.7138,144.1272 L191.0168,144.1272 C190.6688,144.1272 190.3468,143.9462 190.1648,143.6502 C189.9828,143.3552 189.9678,142.9852 190.1238,142.6762 L199.8908,123.3622 C200.0608,123.0252 200.4068,122.8142 200.7838,122.8142 L213.4808,122.8142 C213.8288,122.8142 214.1508,122.9942 214.3318,123.2902 C214.5148,123.5862 214.5298,123.9552 214.3728,124.2652 L204.6068,143.5782 C204.4368,143.9152 204.0908,144.1272 203.7138,144.1272 Z" id="Fill-28" fill="#CACBD0" mask="url(#mask-2)"></path>
                <polygon id="Fill-29" fill="#EFEFEF" mask="url(#mask-2)" points="239.8518 123.8133 227.1548 123.8133 217.3878 143.1273 230.0848 143.1273"></polygon>
                <path d="M219.0139,142.1272 L229.4699,142.1272 L238.2259,124.8142 L227.7699,124.8142 L219.0139,142.1272 Z M230.0849,144.1272 L217.3879,144.1272 C217.0399,144.1272 216.7179,143.9462 216.5359,143.6502 C216.3539,143.3552 216.3389,142.9852 216.4949,142.6762 L226.2619,123.3622 C226.4319,123.0252 226.7779,122.8142 227.1549,122.8142 L239.8519,122.8142 C240.1999,122.8142 240.5219,122.9942 240.7029,123.2902 C240.8859,123.5862 240.9009,123.9552 240.7439,124.2652 L230.9779,143.5782 C230.8079,143.9152 230.4619,144.1272 230.0849,144.1272 Z" id="Fill-30" fill="#CACBD0" mask="url(#mask-2)"></path>
                <polygon id="Fill-31" fill="#EFEFEF" mask="url(#mask-2)" points="266.2229 123.8133 253.5259 123.8133 243.7589 143.1273 256.4559 143.1273"></polygon>
                <path d="M245.385,142.1272 L255.841,142.1272 L264.597,124.8142 L254.141,124.8142 L245.385,142.1272 Z M256.456,144.1272 L243.759,144.1272 C243.411,144.1272 243.089,143.9462 242.907,143.6502 C242.725,143.3552 242.71,142.9852 242.866,142.6762 L252.633,123.3622 C252.803,123.0252 253.149,122.8142 253.526,122.8142 L266.223,122.8142 C266.571,122.8142 266.893,122.9942 267.074,123.2902 C267.257,123.5862 267.272,123.9552 267.115,124.2652 L257.349,143.5782 C257.179,143.9152 256.833,144.1272 256.456,144.1272 Z" id="Fill-32" fill="#CACBD0" mask="url(#mask-2)"></path>
                <polygon id="Fill-33" fill="#EFEFEF" mask="url(#mask-2)" points="292.594 123.8133 279.897 123.8133 270.13 143.1273 282.827 143.1273"></polygon>
                <path d="M271.7561,142.1272 L282.2111,142.1272 L290.9681,124.8142 L280.5121,124.8142 L271.7561,142.1272 Z M282.8261,144.1272 L270.1301,144.1272 C269.7821,144.1272 269.4601,143.9462 269.2781,143.6502 C269.0961,143.3552 269.0811,142.9852 269.2371,142.6762 L279.0041,123.3622 C279.1741,123.0252 279.5201,122.8142 279.8971,122.8142 L292.5941,122.8142 C292.9421,122.8142 293.2641,122.9942 293.4451,123.2902 C293.6281,123.5862 293.6431,123.9552 293.4861,124.2652 L283.7191,143.5782 C283.5491,143.9152 283.2031,144.1272 282.8261,144.1272 Z" id="Fill-34" fill="#CACBD0" mask="url(#mask-2)"></path>
                <polygon id="Fill-35" fill="#EFEFEF" mask="url(#mask-2)" points="318.9651 123.8133 306.2681 123.8133 296.5011 143.1273 309.1981 143.1273"></polygon>
                <path d="M298.1272,142.1272 L308.5822,142.1272 L317.3392,124.8142 L306.8832,124.8142 L298.1272,142.1272 Z M309.1972,144.1272 L296.5012,144.1272 C296.1532,144.1272 295.8312,143.9462 295.6492,143.6502 C295.4672,143.3552 295.4522,142.9852 295.6082,142.6762 L305.3752,123.3622 C305.5452,123.0252 305.8912,122.8142 306.2682,122.8142 L318.9652,122.8142 C319.3132,122.8142 319.6352,122.9942 319.8162,123.2902 C319.9992,123.5862 320.0142,123.9552 319.8572,124.2652 L310.0902,143.5782 C309.9202,143.9152 309.5742,144.1272 309.1972,144.1272 Z" id="Fill-36" fill="#CACBD0" mask="url(#mask-2)"></path>
                <polygon id="Fill-37" fill="#EFEFEF" mask="url(#mask-2)" points="160.7386 83.2535 148.0416 83.2535 138.2746 102.5675 150.9716 102.5675"></polygon>
                <path d="M139.9007,101.5676 L150.3567,101.5676 L159.1127,84.2536 L148.6567,84.2536 L139.9007,101.5676 Z M150.9717,103.5676 L138.2747,103.5676 C137.9267,103.5676 137.6047,103.3866 137.4227,103.0906 C137.2407,102.7956 137.2257,102.4256 137.3817,102.1166 L147.1487,82.8016 C147.3187,82.4646 147.6647,82.2536 148.0417,82.2536 L160.7387,82.2536 C161.0867,82.2536 161.4087,82.4336 161.5897,82.7296 C161.7727,83.0256 161.7877,83.3946 161.6307,83.7046 L151.8647,103.0186 C151.6947,103.3556 151.3487,103.5676 150.9717,103.5676 Z" id="Fill-38" fill="#CACBD0" mask="url(#mask-2)"></path>
                <polygon id="Fill-39" fill="#EFEFEF" mask="url(#mask-2)" points="187.1097 83.2535 174.4127 83.2535 164.6457 102.5675 177.3427 102.5675"></polygon>
                <path d="M166.2717,101.5676 L176.7277,101.5676 L185.4837,84.2536 L175.0277,84.2536 L166.2717,101.5676 Z M177.3427,103.5676 L164.6457,103.5676 C164.2977,103.5676 163.9757,103.3866 163.7937,103.0906 C163.6117,102.7956 163.5967,102.4256 163.7527,102.1166 L173.5197,82.8016 C173.6897,82.4646 174.0357,82.2536 174.4127,82.2536 L187.1097,82.2536 C187.4577,82.2536 187.7797,82.4336 187.9607,82.7296 C188.1437,83.0256 188.1587,83.3946 188.0017,83.7046 L178.2357,103.0186 C178.0657,103.3556 177.7197,103.5676 177.3427,103.5676 Z" id="Fill-40" fill="#CACBD0" mask="url(#mask-2)"></path>
                <polygon id="Fill-41" fill="#EFEFEF" mask="url(#mask-2)" points="213.4807 83.2535 200.7837 83.2535 191.0167 102.5675 203.7137 102.5675"></polygon>
                <path d="M192.6428,101.5676 L203.0988,101.5676 L211.8548,84.2536 L201.3988,84.2536 L192.6428,101.5676 Z M203.7138,103.5676 L191.0168,103.5676 C190.6688,103.5676 190.3468,103.3866 190.1648,103.0906 C189.9828,102.7956 189.9678,102.4256 190.1238,102.1166 L199.8908,82.8016 C200.0608,82.4646 200.4068,82.2536 200.7838,82.2536 L213.4808,82.2536 C213.8288,82.2536 214.1508,82.4336 214.3318,82.7296 C214.5148,83.0256 214.5298,83.3946 214.3728,83.7046 L204.6068,103.0186 C204.4368,103.3556 204.0908,103.5676 203.7138,103.5676 Z" id="Fill-42" fill="#CACBD0" mask="url(#mask-2)"></path>
                <polygon id="Fill-43" fill="#EFEFEF" mask="url(#mask-2)" points="239.8518 83.2535 227.1548 83.2535 217.3878 102.5675 230.0848 102.5675"></polygon>
                <path d="M219.0139,101.5676 L229.4699,101.5676 L238.2259,84.2536 L227.7699,84.2536 L219.0139,101.5676 Z M230.0849,103.5676 L217.3879,103.5676 C217.0399,103.5676 216.7179,103.3866 216.5359,103.0906 C216.3539,102.7956 216.3389,102.4256 216.4949,102.1166 L226.2619,82.8016 C226.4319,82.4646 226.7779,82.2536 227.1549,82.2536 L239.8519,82.2536 C240.1999,82.2536 240.5219,82.4336 240.7029,82.7296 C240.8859,83.0256 240.9009,83.3946 240.7439,83.7046 L230.9779,103.0186 C230.8079,103.3556 230.4619,103.5676 230.0849,103.5676 Z" id="Fill-44" fill="#CACBD0" mask="url(#mask-2)"></path>
                <polygon id="Fill-45" fill="#EFEFEF" mask="url(#mask-2)" points="266.2229 83.2535 253.5259 83.2535 243.7589 102.5675 256.4559 102.5675"></polygon>
                <path d="M245.385,101.5676 L255.841,101.5676 L264.597,84.2536 L254.141,84.2536 L245.385,101.5676 Z M256.456,103.5676 L243.759,103.5676 C243.411,103.5676 243.089,103.3866 242.907,103.0906 C242.725,102.7956 242.71,102.4256 242.866,102.1166 L252.633,82.8016 C252.803,82.4646 253.149,82.2536 253.526,82.2536 L266.223,82.2536 C266.571,82.2536 266.893,82.4336 267.074,82.7296 C267.257,83.0256 267.272,83.3946 267.115,83.7046 L257.349,103.0186 C257.179,103.3556 256.833,103.5676 256.456,103.5676 Z" id="Fill-46" fill="#CACBD0" mask="url(#mask-2)"></path>
                <polygon id="Fill-47" fill="#EFEFEF" mask="url(#mask-2)" points="292.594 83.2535 279.897 83.2535 270.13 102.5675 282.827 102.5675"></polygon>
                <path d="M271.7561,101.5676 L282.2111,101.5676 L290.9681,84.2536 L280.5121,84.2536 L271.7561,101.5676 Z M282.8261,103.5676 L270.1301,103.5676 C269.7821,103.5676 269.4601,103.3866 269.2781,103.0906 C269.0961,102.7956 269.0811,102.4256 269.2371,102.1166 L279.0041,82.8016 C279.1741,82.4646 279.5201,82.2536 279.8971,82.2536 L292.5941,82.2536 C292.9421,82.2536 293.2641,82.4336 293.4451,82.7296 C293.6281,83.0256 293.6431,83.3946 293.4861,83.7046 L283.7191,103.0186 C283.5491,103.3556 283.2031,103.5676 282.8261,103.5676 Z" id="Fill-48" fill="#CACBD0" mask="url(#mask-2)"></path>
                <polygon id="Fill-49" fill="#EFEFEF" mask="url(#mask-2)" points="318.9651 83.2535 306.2681 83.2535 296.5011 102.5675 309.1981 102.5675"></polygon>
                <path d="M298.1272,101.5676 L308.5822,101.5676 L317.3392,84.2536 L306.8832,84.2536 L298.1272,101.5676 Z M309.1972,103.5676 L296.5012,103.5676 C296.1532,103.5676 295.8312,103.3866 295.6492,103.0906 C295.4672,102.7956 295.4522,102.4256 295.6082,102.1166 L305.3752,82.8016 C305.5452,82.4646 305.8912,82.2536 306.2682,82.2536 L318.9652,82.2536 C319.3132,82.2536 319.6352,82.4336 319.8162,82.7296 C319.9992,83.0256 320.0142,83.3946 319.8572,83.7046 L310.0902,103.0186 C309.9202,103.3556 309.5742,103.5676 309.1972,103.5676 Z" id="Fill-50" fill="#CACBD0" mask="url(#mask-2)"></path>
                <path d="M308.0842,74.3202 C302.4742,49.3282 277.4352,33.5642 252.1582,39.1112 C226.8812,44.6582 210.9382,69.4152 216.5482,94.4072 C222.1582,119.4002 247.1972,135.1632 272.4742,129.6162 C297.7512,124.0702 313.6942,99.3122 308.0842,74.3202" id="Fill-51" fill="#FCFCFC" mask="url(#mask-2)"></path>
                <path d="M262.3255,39.0051 C259.0415,39.0051 255.7095,39.3561 252.3735,40.0881 C240.3205,42.7331 230.0605,49.8781 223.4845,60.2071 C217.0055,70.3821 214.8885,82.4501 217.5235,94.1891 C223.0065,118.6051 247.5565,134.0661 272.2605,128.6401 C284.3115,125.9951 294.5715,118.8501 301.1475,108.5211 C307.6275,98.3461 309.7435,86.2771 307.1085,74.5391 C302.3675,53.4201 283.3565,39.0051 262.3255,39.0051 M262.3085,131.7231 C240.3615,131.7241 220.5215,116.6751 215.5725,94.6261 C212.8195,82.3651 215.0305,69.7601 221.7975,59.1331 C228.6615,48.3521 239.3685,40.8951 251.9445,38.1351 C277.7175,32.4791 303.3395,48.6121 309.0595,74.1021 C311.8125,86.3621 309.6015,98.9681 302.8355,109.5951 C295.9715,120.3761 285.2635,127.8331 272.6875,130.5931 C269.2105,131.3571 265.7325,131.7231 262.3085,131.7231" id="Fill-52" fill="#CACBD0" mask="url(#mask-2)"></path>
                <polygon id="Fill-53" fill="#FFFFFF" mask="url(#mask-2)" points="293.233 85.1764 234.65 98.0324 231.399 83.5514 289.982 70.6954"></polygon>
                <path d="M232.595,84.3127 L235.408,96.8417 L292.037,84.4147 L289.225,71.8857 L232.595,84.3127 Z M234.649,99.0327 C234.191,99.0327 233.779,98.7157 233.674,98.2507 L230.423,83.7697 C230.365,83.5097 230.412,83.2387 230.555,83.0137 C230.699,82.7897 230.924,82.6307 231.185,82.5747 L289.769,69.7187 C290.295,69.6027 290.838,69.9397 290.958,70.4767 L294.208,84.9577 C294.267,85.2167 294.219,85.4887 294.076,85.7127 C293.933,85.9377 293.707,86.0957 293.448,86.1527 L234.865,99.0087 C234.792,99.0247 234.72,99.0327 234.649,99.0327 Z" id="Fill-54" fill="#CACBD0" mask="url(#mask-2)"></path>
                <path d="M31.0325,236.1183 C30.7405,236.1183 30.4525,235.9913 30.2545,235.7473 C29.9065,235.3183 29.9725,234.6883 30.4025,234.3413 C52.7175,216.2693 82.3815,201.3273 116.1875,191.1293 C116.7175,190.9683 117.2755,191.2673 117.4335,191.7973 C117.5945,192.3263 117.2945,192.8843 116.7655,193.0433 C83.2055,203.1683 53.7765,217.9853 31.6605,235.8953 C31.4755,236.0453 31.2535,236.1183 31.0325,236.1183" id="Fill-55" fill="#CACBD0" mask="url(#mask-2)"></path>
                <path d="M173.4192,180.9308 C172.9252,180.9308 172.4952,180.5658 172.4292,180.0628 C172.3562,179.5148 172.7402,179.0128 173.2882,178.9398 C208.5632,174.2468 246.2002,174.2438 281.4942,178.9328 C282.0412,179.0048 282.4272,179.5078 282.3542,180.0558 C282.2812,180.6028 281.7772,180.9818 281.2312,180.9148 C246.1102,176.2498 208.6522,176.2528 173.5522,180.9218 C173.5072,180.9278 173.4632,180.9308 173.4192,180.9308" id="Fill-56" fill="#CACBD0" mask="url(#mask-2)"></path>
                <path d="M375.3733,206.8713 C375.2353,206.8713 375.0963,206.8433 374.9623,206.7823 C362.7593,201.2703 349.6023,196.4273 335.8573,192.3853 C335.3283,192.2293 335.0243,191.6743 335.1813,191.1433 C335.3363,190.6153 335.8873,190.3083 336.4223,190.4673 C350.2543,194.5333 363.4983,199.4103 375.7863,204.9603 C376.2893,205.1873 376.5133,205.7793 376.2853,206.2833 C376.1183,206.6523 375.7543,206.8713 375.3733,206.8713" id="Fill-57" fill="#CACBD0" mask="url(#mask-2)"></path>
                <path d="M235.0618,219.7189 C225.7718,219.7189 219.0288,215.7519 216.3128,211.5309 C214.5668,208.8179 214.3618,205.9379 215.7338,203.4229 C218.4268,198.4889 226.6188,195.7709 238.7988,195.7709 C248.4168,195.7709 254.9538,197.8719 258.2288,202.0179 C261.1698,205.7419 260.2768,209.6859 260.2368,209.8519 C260.1088,210.3909 259.5698,210.7219 259.0328,210.5929 C258.4958,210.4649 258.1638,209.9259 258.2918,209.3889 C258.3198,209.2639 258.9878,206.1739 256.6318,203.2239 C253.7858,199.6569 247.6188,197.7709 238.7988,197.7709 C227.5488,197.7709 219.7828,200.1799 217.4898,204.3809 C216.2008,206.7429 217.0528,208.9849 217.9948,210.4489 C220.5378,214.4009 227.6828,218.3369 237.3428,217.6359 C237.8908,217.5859 238.3728,218.0099 238.4128,218.5609 C238.4528,219.1119 238.0388,219.5909 237.4878,219.6299 C236.6618,219.6899 235.8518,219.7189 235.0618,219.7189" id="Fill-58" fill="#CACBD0" mask="url(#mask-2)"></path>
                <path d="M182.3753,221.0949 C178.3593,221.0949 174.2973,219.9309 172.0633,217.7869 C170.4263,216.2149 170.0203,214.2799 170.9223,212.3369 C171.1543,211.8359 171.7493,211.6159 172.2503,211.8509 C172.7513,212.0829 172.9693,212.6779 172.7363,213.1789 C172.1993,214.3339 172.4333,215.3689 173.4483,216.3449 C176.2303,219.0169 184.0203,220.2089 188.8063,217.7439 C191.5433,216.3329 192.7383,214.2779 192.0023,212.2449 C191.0703,209.6719 187.2453,207.7089 181.7313,208.9359 C181.1983,209.0529 180.6593,208.7169 180.5383,208.1759 C180.4193,207.6369 180.7593,207.1029 181.2983,206.9829 C187.9393,205.5089 192.6533,208.1699 193.8833,211.5649 C194.7403,213.9329 194.0983,217.2669 189.7223,219.5219 C187.6523,220.5879 185.0233,221.0949 182.3753,221.0949" id="Fill-59" fill="#CACBD0" mask="url(#mask-2)"></path>
                <path d="M49.5706,222.8723 C49.0816,222.8723 48.6536,222.5133 48.5826,222.0153 C43.5916,187.4413 47.3966,179.1103 54.6436,177.2393 C57.3676,176.5323 59.9856,176.9813 62.4276,178.5593 C72.0346,184.7723 75.9076,206.7943 76.0676,207.7283 C76.1616,208.2723 75.7956,208.7903 75.2516,208.8833 C74.7106,208.9793 74.1906,208.6103 74.0966,208.0663 C74.0586,207.8473 70.2136,185.9753 61.3416,180.2383 C59.3596,178.9583 57.3346,178.6123 55.1436,179.1753 C46.0576,181.5223 47.5716,201.0153 50.5616,221.7293 C50.6396,222.2753 50.2606,222.7833 49.7146,222.8613 C49.6666,222.8693 49.6176,222.8723 49.5706,222.8723" id="Fill-60" fill="#CACBD0" mask="url(#mask-2)"></path>
                <path d="M105.9192,196.4689 C105.4102,196.4689 104.9752,196.0819 104.9252,195.5659 C102.6572,172.1129 94.0552,150.6709 83.5192,142.2109 C79.7682,139.1989 75.8992,137.9129 72.0302,138.3839 C56.1532,140.3209 59.1862,177.5459 59.2182,177.9219 C59.2662,178.4719 58.8582,178.9559 58.3082,179.0039 C57.7432,179.0559 57.2732,178.6439 57.2262,178.0939 C57.0862,176.4819 54.0162,138.5669 71.7882,136.3999 C76.2182,135.8589 80.5842,137.2899 84.7712,140.6519 C95.7002,149.4279 104.6002,171.4179 106.9152,195.3719 C106.9692,195.9219 106.5652,196.4109 106.0172,196.4639 C105.9832,196.4669 105.9512,196.4689 105.9192,196.4689" id="Fill-61" fill="#CACBD0" mask="url(#mask-2)"></path>
                <path d="M401.9485,30.3687 L400.2525,34.1567 L403.4885,35.1457 L405.2125,31.3397 L401.9485,30.3687 Z M409.6325,32.4057 C409.3905,32.5287 409.1565,32.5547 408.9055,32.4737 L406.9095,31.8597 C406.7625,32.1657 406.6065,32.4927 406.4445,32.8427 C406.2665,33.2397 406.0945,33.6127 405.9555,33.9727 C405.7865,34.3447 405.6295,34.6737 405.5125,34.9627 L405.2235,35.6267 C405.3145,35.6557 405.4825,35.6827 405.6955,35.7267 L406.3035,35.8727 C406.5075,35.9387 406.6995,35.9727 406.8665,36.0017 C407.0265,36.0537 407.1245,36.0607 407.1695,36.0747 C407.3985,36.1477 407.5755,36.3057 407.6845,36.5167 C407.7615,36.7427 407.7945,36.9537 407.7205,37.1827 C407.6035,37.5487 407.3625,37.7487 407.0065,37.7597 C406.6445,37.7957 406.2415,37.7147 405.7615,37.5617 L404.5045,37.1577 L404.2615,37.6847 L403.9505,38.4917 C403.8085,38.7747 403.6985,39.0407 403.6185,39.2917 C403.5075,39.5597 403.4345,39.7887 403.3905,39.9247 L403.2215,40.4507 C403.1635,40.6327 403.1495,40.7537 403.1495,40.8297 C403.1345,40.8757 403.1365,40.9527 403.1225,40.9977 L403.0785,41.1347 C403.0265,41.2947 402.9215,41.3867 402.7545,41.4337 C402.5655,41.4747 402.3905,41.4687 402.2085,41.4097 C401.7975,41.2777 401.5365,41.0687 401.4425,40.8107 C401.3565,40.5307 401.3895,40.1887 401.5295,39.7557 C401.6535,39.3667 401.8245,38.9197 402.0445,38.3847 C402.2605,37.8737 402.4885,37.3167 402.7855,36.7087 L401.0715,36.1587 C400.7455,36.0787 400.4485,35.9837 400.1745,35.8957 L399.5795,35.7047 C399.5505,35.7957 399.4765,35.9487 399.4185,36.1307 L398.9165,37.3817 C398.8215,37.6027 398.7695,37.7627 398.7265,37.8987 L398.6235,38.2187 C398.5795,38.3557 398.5425,38.4697 398.5355,38.5697 C398.4845,38.7277 398.4115,38.8807 398.3425,39.0107 C398.2395,39.1787 398.1265,39.2937 398.0135,39.4097 C397.8785,39.5157 397.7265,39.5937 397.5915,39.6267 C397.4245,39.6737 397.2745,39.6747 397.0905,39.6157 C396.7945,39.5207 396.6415,39.3707 396.6165,39.2127 C396.5695,39.0467 396.5585,38.8417 396.6255,38.6357 L396.7565,38.2247 C396.8155,38.0427 396.8885,37.8137 397.0065,37.5227 L397.3465,36.6247 L397.6985,35.7557 C397.7865,35.4827 397.8695,35.3057 397.9355,35.1777 C397.7755,35.1257 397.5865,35.0897 397.3575,35.0167 L396.3535,34.6937 C396.1695,34.6347 396.0405,34.5697 395.9185,34.4787 C395.6345,34.2627 395.5705,33.9897 395.6875,33.6247 C395.7825,33.3277 395.9475,33.1277 396.2275,33.0417 C396.4785,32.9697 396.8635,33.0197 397.3665,33.1817 L397.5725,33.2477 C397.6635,33.2767 397.7945,33.3427 397.9295,33.3867 L398.2965,33.5047 C398.4265,33.5707 398.5175,33.5997 398.6085,33.6297 L400.2265,29.8407 L398.6045,29.3207 C398.3315,29.2327 398.1495,29.0987 398.0405,28.8867 C397.8995,28.6917 397.8975,28.4637 397.9855,28.1907 C398.0875,27.8707 398.2765,27.6787 398.5495,27.6147 C398.8145,27.5747 399.1095,27.5937 399.4295,27.6957 L399.7725,27.8057 C399.9095,27.8497 400.0385,27.9157 400.1985,27.9667 L400.6335,28.1067 C400.7615,28.1727 400.8995,28.2167 400.9905,28.2457 C401.0415,28.0877 401.1835,27.8057 401.3595,27.4087 C401.5385,27.0127 401.7225,26.5917 401.9765,26.1197 L402.4495,25.1127 C402.6135,24.7627 402.8065,24.4717 402.9865,24.2257 C403.1895,24.1417 403.3935,24.0557 403.6055,24.0227 C403.7945,23.9827 403.9935,23.9957 404.1985,24.0607 C404.2445,24.0757 404.3205,24.1517 404.4885,24.2547 L404.8555,24.5247 C404.7215,24.7827 404.6105,25.0507 404.4785,25.3097 C404.3435,25.5707 404.2185,25.8067 404.0995,26.0187 C403.8545,26.4697 403.6385,26.9047 403.4005,27.3327 C403.1635,27.7597 402.9335,28.2397 402.6885,28.7657 L405.9765,29.7457 C406.0275,29.5857 406.1685,29.3047 406.3845,28.8687 C406.5925,28.4577 406.8065,28.0217 407.0585,27.5487 C407.2515,27.1067 407.4595,26.6947 407.6525,26.3287 C407.8385,25.9857 407.9565,25.7717 408.0255,25.7177 C408.2195,25.5787 408.4235,25.4927 408.6745,25.4977 C408.8715,25.5117 409.1145,25.5377 409.3895,25.6267 C409.4345,25.6407 409.5345,25.7247 409.6805,25.8207 C409.7875,25.9547 409.8565,26.0527 409.8345,26.1217 C409.7975,26.2357 409.7535,26.2967 409.7455,26.3207 C409.7085,26.3587 409.7015,26.3807 409.6935,26.4047 C409.6795,26.4497 409.6425,26.4887 409.6035,26.5257 L409.3955,26.8627 L409.2095,27.2057 C409.0915,27.4197 408.9645,27.6557 408.8175,27.9617 L408.3785,28.8547 C408.2295,29.1597 408.0905,29.4407 407.9775,29.7087 C407.8455,29.9677 407.7405,30.1347 407.6965,30.2727 L408.6115,30.5657 C408.7935,30.6247 408.9605,30.6537 409.1205,30.7047 L409.4165,30.7997 C409.6685,30.8807 409.8515,31.0157 409.9905,31.2097 C410.0985,31.4207 410.1235,31.6567 410.0505,31.8857 C409.9695,32.1367 409.8125,32.3117 409.6325,32.4057 Z" id="Fill-62" fill="#CACBD0" mask="url(#mask-2)"></path>
                <path d="M430.102,31.6673 C429.962,31.4703 429.856,31.3363 429.74,31.2993 C429.649,31.2693 429.506,31.2483 429.346,31.1973 C429.147,31.1843 429.027,31.1703 428.928,31.1633 C428.26,31.2013 427.701,31.2993 427.247,31.4563 C426.741,31.6203 426.318,31.8373 425.98,32.1063 C425.633,32.3993 425.334,32.7053 425.118,33.0653 C424.902,33.4243 424.731,33.7983 424.606,34.1873 C424.512,34.4823 424.546,34.7703 424.731,35.0573 C424.909,35.3673 425.199,35.5603 425.61,35.6923 C426.181,35.8753 426.705,35.8923 427.219,35.7043 C427.703,35.5313 428.133,35.2913 428.538,34.9683 C428.914,34.6603 429.259,34.2933 429.566,33.8873 C429.848,33.4753 430.093,33.0243 430.278,32.5303 C430.266,32.1733 430.211,31.8783 430.102,31.6673 M435.047,41.8443 C434.853,41.9833 434.664,42.0993 434.46,42.1853 L433.87,42.3733 L433.251,42.5773 C432.14,42.9013 430.995,43.0123 429.856,42.9503 C428.717,42.8863 427.571,42.6943 426.473,42.3423 C424.852,41.8223 423.503,41.1613 422.409,40.4083 C421.294,39.6463 420.465,38.7773 419.885,37.8343 C419.283,36.8863 418.959,35.8493 418.863,34.7353 C418.76,33.6443 418.9,32.5053 419.281,31.3193 C419.677,30.0843 420.255,28.9853 421.048,28.0053 C421.834,27.0493 422.765,26.2653 423.868,25.6603 C424.907,25.0873 426.087,24.7093 427.39,24.5733 C428.663,24.4533 429.999,24.6043 431.37,25.0443 C432.467,25.3963 433.482,25.9233 434.405,26.5723 C435.309,27.2153 436.023,27.9733 436.608,28.8173 C437.141,29.6673 437.5,30.5893 437.679,31.6043 C437.858,32.6193 437.769,33.6743 437.418,34.7693 C437.228,35.3633 436.985,35.8903 436.671,36.3943 C436.357,36.8993 436,37.3873 435.602,37.8403 C435.303,38.1463 434.979,38.4463 434.603,38.6783 C434.212,38.9553 433.819,39.1573 433.397,39.2983 C432.967,39.4623 432.534,39.5513 432.118,39.5943 C431.678,39.6293 431.267,39.5733 430.903,39.4563 C430.217,39.2363 429.69,38.9153 429.374,38.4863 C429.051,38.0803 428.87,37.4683 428.876,36.6643 C428.166,36.9903 427.517,37.2113 426.925,37.3223 C426.313,37.4293 425.727,37.3673 425.157,37.1833 C424.654,37.0223 424.243,36.8143 423.935,36.5153 C423.598,36.2303 423.351,35.8993 423.196,35.5203 C423.01,35.1593 422.931,34.7813 422.947,34.3333 C422.928,33.9253 422.991,33.4923 423.138,33.0343 C423.307,32.5083 423.665,31.9443 424.205,31.3603 C424.713,30.7933 425.383,30.3543 426.199,30.0103 C426.84,29.7383 427.545,29.5873 428.318,29.5313 C429.06,29.4933 429.766,29.5683 430.406,29.7733 C430.635,29.8463 430.849,29.9663 431.093,30.1453 C431.292,30.3103 431.492,30.5503 431.694,30.8673 C431.852,30.8423 432.004,30.8413 432.095,30.8713 C432.324,30.9443 432.523,31.1093 432.669,31.3563 C432.809,31.6293 432.85,31.8923 432.777,32.1213 C432.688,32.3963 432.549,32.6783 432.377,32.9763 C432.184,33.2663 432.019,33.5423 431.84,33.7863 L431.272,34.6113 C431.078,34.9013 430.961,35.1923 430.858,35.5123 C430.653,36.1513 430.605,36.6903 430.731,37.0833 C430.843,37.5213 431.111,37.7843 431.567,37.9303 C431.796,38.0033 432.076,37.9933 432.469,37.8663 C432.833,37.7573 433.226,37.5553 433.631,37.2323 C434.029,36.9313 434.412,36.5253 434.801,36.0203 C435.159,35.5323 435.456,34.9213 435.683,34.2133 C435.947,33.3913 435.984,32.5723 435.815,31.7613 C435.639,30.9743 435.32,30.2423 434.864,29.5423 C434.371,28.8793 433.781,28.2883 433.07,27.7563 C432.328,27.2413 431.55,26.8423 430.726,26.5773 C429.54,26.1963 428.431,26.1173 427.394,26.2873 C426.326,26.4743 425.351,26.8423 424.509,27.4273 C423.62,27.9993 422.893,28.6973 422.265,29.5543 C421.637,30.4113 421.185,31.3493 420.877,32.3093 C420.613,33.1313 420.524,33.9593 420.654,34.8073 C420.763,35.6493 421.09,36.4323 421.63,37.1863 C422.146,37.9303 422.86,38.6133 423.791,39.2403 C424.695,39.8823 425.838,40.3993 427.208,40.8393 C427.528,40.9413 427.924,41.0443 428.357,41.1073 C428.782,41.1943 429.223,41.2353 429.724,41.2443 C430.202,41.2453 430.71,41.2323 431.232,41.1743 C431.733,41.1073 432.247,40.9953 432.776,40.8373 C433.11,40.7433 433.426,40.6193 433.773,40.4783 C434.083,40.3763 434.385,40.2213 434.702,40.0193 L434.731,40.0043 C434.738,39.9813 434.792,39.9743 434.837,39.9883 L434.928,40.0173 C435.134,40.0843 435.297,40.2863 435.406,40.5733 C435.485,40.8753 435.496,41.1563 435.415,41.4073 C435.356,41.5913 435.236,41.7293 435.047,41.8443" id="Fill-63" fill="#CACBD0" mask="url(#mask-2)"></path>
                <path d="M449.6039,63.6017 C449.5419,63.3297 449.4549,63.0497 449.3289,62.8077 C449.1609,62.5527 448.9839,62.3197 448.7449,62.1157 C448.5009,61.9367 448.2259,61.7727 447.9299,61.6777 C447.2439,61.4577 446.6069,61.4807 446.0409,61.7527 C445.4519,62.0167 445.0639,62.4467 444.8589,63.0857 C444.7709,63.3597 444.7269,63.6487 444.7309,63.9517 C444.7259,64.2787 444.7689,64.6207 444.8629,64.9517 C444.9049,65.2937 444.9929,65.6477 445.0869,65.9817 C445.1759,66.3367 445.2919,66.6777 445.4259,66.9707 C445.5909,66.9227 445.7579,66.8757 445.9319,66.8067 L446.5209,66.6187 L447.1699,66.3977 C447.3739,66.3117 447.5859,66.2027 447.7969,66.0947 C448.1889,65.8947 448.5429,65.6547 448.8819,65.3847 C449.1889,65.1297 449.4149,64.8247 449.5319,64.4607 C449.6199,64.1857 449.6319,63.9117 449.6039,63.6017 M445.6549,71.9077 C445.1509,71.0407 444.6789,70.0827 444.2429,69.0847 C443.8489,69.2117 443.4729,69.3677 443.0949,69.5227 C442.6869,69.6957 442.3259,69.8817 442.0089,70.0817 C441.6699,70.2757 441.3679,70.5057 441.1349,70.7587 C440.8749,71.0277 440.7099,71.3037 440.6079,71.6237 C440.4609,72.0787 440.4429,72.4507 440.5829,72.7987 C440.6779,73.1307 440.8699,73.3937 441.1459,73.6337 C441.3919,73.8897 441.7049,74.0907 442.0789,74.2617 C442.4289,74.4227 442.7639,74.5567 443.1299,74.6747 C443.7229,74.8647 444.3699,74.9717 445.0829,74.9487 C445.7719,74.9177 446.4989,74.8487 447.3009,74.7027 C446.7069,73.7297 446.1509,72.7967 445.6549,71.9077 M453.2579,79.5367 C452.9879,79.7517 452.6629,79.8237 452.2969,79.7067 C451.9769,79.6037 451.6339,79.4177 451.2899,79.1557 C450.9219,78.8877 450.5469,78.5667 450.1939,78.2497 C449.8259,77.9067 449.4879,77.5457 449.1579,77.1627 C448.8199,76.8017 448.5519,76.4637 448.3049,76.1317 C447.2919,76.4637 446.2849,76.6177 445.2759,76.6227 C444.2579,76.6487 443.2719,76.5087 442.3589,76.2157 C441.7189,76.0107 441.1459,75.7507 440.5969,75.4227 C440.0479,75.0947 439.5569,74.7367 439.1879,74.3167 C438.7739,73.8797 438.5039,73.3917 438.3759,72.8457 C438.2169,72.3167 438.2569,71.7247 438.4629,71.0847 C438.6169,70.6047 438.8539,70.1787 439.2219,69.8167 C439.5589,69.4717 439.9659,69.1487 440.4319,68.8717 C440.8989,68.5927 441.4049,68.3507 441.9779,68.1327 C442.5009,67.9227 443.0439,67.7177 443.6039,67.5447 C443.2899,66.6377 443.0749,65.7377 442.9589,64.8457 C442.8269,63.9977 442.8939,63.1617 443.1579,62.3397 C443.3189,61.8377 443.5869,61.3937 443.9619,61.0097 C444.3079,60.6427 444.7279,60.3487 445.2189,60.1537 C445.6879,59.9517 446.2019,59.8397 446.7629,59.8187 C447.2939,59.8127 447.8479,59.8897 448.3959,60.0657 C448.8979,60.2267 449.3729,60.4797 449.8019,60.7937 C450.1989,61.1217 450.5509,61.5117 450.8219,61.9267 C451.0839,62.3637 451.2429,62.8167 451.3389,63.3007 C451.4119,63.7777 451.3809,64.2727 451.2269,64.7517 C450.9339,65.6657 450.3109,66.4237 449.3999,66.9867 C448.4589,67.5667 447.3189,68.0577 445.9969,68.4887 C446.4249,69.5087 446.8989,70.4667 447.3849,71.3797 C447.8519,72.2847 448.4079,73.2177 449.0489,74.1287 C449.4339,73.9507 449.7799,73.7337 450.1099,73.4867 C450.4109,73.2577 450.6269,72.9737 450.7369,72.6317 C450.7809,72.4937 450.8169,72.3047 450.8609,72.0907 C450.8729,71.8937 450.9319,71.7117 450.9829,71.5517 C451.0269,71.4137 451.1179,71.2917 451.2849,71.2447 C451.4269,71.1897 451.5799,71.1877 451.7619,71.2457 C451.9909,71.3197 452.1429,71.4707 452.2299,71.6747 C452.2619,71.8867 452.2729,72.0907 452.2509,72.3117 L452.1439,72.8797 C452.0849,73.0647 452.0639,73.2077 452.0269,73.3227 C451.9099,73.6867 451.6429,74.0547 451.2499,74.4087 C450.8299,74.7767 450.4009,75.0917 449.9579,75.3787 C450.5499,76.1227 451.1419,76.7917 451.7699,77.3467 C452.3519,77.8837 453.0779,78.3697 453.9099,78.7637 C453.7159,79.0537 453.5059,79.3127 453.2579,79.5367" id="Fill-64" fill="#CACBD0" mask="url(#mask-2)"></path>
                <path d="M397.1266,74.4906 C384.2686,61.6326 376.3556,48.6986 379.4526,45.6006 L376.0806,48.9736 C372.9836,52.0706 380.8966,65.0046 393.7546,77.8626 C406.6126,90.7206 419.5466,98.6336 422.6436,95.5366 L426.0166,92.1636 C422.9186,95.2616 409.9846,87.3486 397.1266,74.4906" id="Fill-65" fill="#EFEFEF" mask="url(#mask-2)"></path>
                <path d="M377.9388,48.5295 L376.7878,49.6795 C374.7418,51.7265 380.4748,63.1695 394.4608,77.1555 C400.6258,83.3205 406.9908,88.5315 412.3808,91.8305 C418.1318,95.3465 421.1238,95.6425 421.9368,94.8295 L423.0868,93.6785 C417.8548,92.9645 408.3878,87.1675 396.4188,75.1975 C384.4508,63.2275 378.6538,53.7615 377.9388,48.5295 M420.6758,97.2155 C418.4668,97.2155 415.3428,95.9865 411.3378,93.5365 C405.8158,90.1575 399.3208,84.8425 393.0468,78.5695 C377.2988,62.8215 372.2358,51.4045 375.3738,48.2655 L378.7428,44.8975 C378.7438,44.8955 378.7458,44.8945 378.7468,44.8935 C379.1368,44.5035 379.7698,44.5035 380.1608,44.8935 C380.5508,45.2845 380.5508,45.9175 380.1608,46.3075 C378.1148,48.3535 383.8478,59.7975 397.8338,73.7835 C411.8198,87.7685 423.2618,93.5085 425.3088,91.4575 C425.6998,91.0665 426.3328,91.0665 426.7228,91.4575 C426.9178,91.6525 427.0158,91.9085 427.0158,92.1645 C427.0158,92.4205 426.9178,92.6755 426.7228,92.8715 L423.3508,96.2435 C422.7038,96.8915 421.8098,97.2155 420.6758,97.2155" id="Fill-66" fill="#CACBD0" mask="url(#mask-2)"></path>
                <path d="M421.2249,49.7746 C421.0839,49.7746 420.9469,49.8256 420.8429,49.9286 C420.6259,50.1456 420.6389,50.5126 420.8719,50.7456 C420.9879,50.8616 421.1389,50.9266 421.2979,50.9286 L421.3049,50.9286 C421.3939,50.9286 421.5539,50.9076 421.6869,50.7746 L421.6889,50.7726 C421.8259,50.6356 421.8439,50.4706 421.8429,50.3836 C421.8409,50.2246 421.7759,50.0736 421.6599,49.9576 C421.5369,49.8366 421.3789,49.7746 421.2249,49.7746 M421.3069,52.9286 L421.2729,52.9286 C420.5889,52.9206 419.9449,52.6466 419.4569,52.1596 C418.4459,51.1466 418.4329,49.5116 419.4279,48.5156 C420.4259,47.5166 422.0599,47.5316 423.0739,48.5426 C423.5609,49.0306 423.8339,49.6746 423.8429,50.3586 C423.8519,51.0516 423.5879,51.7016 423.1019,52.1876 C422.6239,52.6666 421.9879,52.9286 421.3069,52.9286" id="Fill-67" fill="#CACBD0" mask="url(#mask-2)"></path>
                <path d="M415.9807,56.6369 C415.7247,56.6369 415.4687,56.5389 415.2737,56.3439 C414.8827,55.9529 414.8827,55.3209 415.2737,54.9299 L419.4577,50.7449 C419.8477,50.3549 420.4807,50.3549 420.8717,50.7449 C421.2617,51.1359 421.2617,51.7689 420.8717,52.1589 L416.6877,56.3439 C416.4927,56.5389 416.2367,56.6369 415.9807,56.6369" id="Fill-68" fill="#CACBD0" mask="url(#mask-2)"></path>
                <path d="M358.9241,73.4553 C358.6131,73.4553 358.3081,73.3113 358.1121,73.0413 C357.7891,72.5943 357.8901,71.9683 358.3371,71.6443 L377.6241,57.7023 C378.0701,57.3783 378.6961,57.4793 379.0211,57.9273 C379.3441,58.3743 379.2431,59.0003 378.7961,59.3233 L359.5091,73.2663 C359.3321,73.3933 359.1271,73.4553 358.9241,73.4553" id="Fill-69" fill="#CACBD0" mask="url(#mask-2)"></path>
                <path d="M400.5257,115.0578 C400.3477,115.0578 400.1687,115.0108 400.0057,114.9118 C399.5347,114.6238 399.3847,114.0088 399.6727,113.5368 L412.3657,92.7208 C412.6537,92.2488 413.2697,92.0988 413.7397,92.3878 C414.2117,92.6748 414.3607,93.2898 414.0727,93.7618 L401.3797,114.5788 C401.1917,114.8868 400.8627,115.0578 400.5257,115.0578" id="Fill-70" fill="#CACBD0" mask="url(#mask-2)"></path>
                <path d="M371.2024,75.5773 C370.9464,75.5773 370.6904,75.4793 370.4954,75.2843 C370.1044,74.8933 370.1044,74.2613 370.4954,73.8703 L378.8214,65.5443 C379.2124,65.1533 379.8454,65.1533 380.2354,65.5443 C380.6264,65.9343 380.6264,66.5673 380.2354,66.9583 L371.9094,75.2843 C371.7144,75.4793 371.4584,75.5773 371.2024,75.5773" id="Fill-71" fill="#CACBD0" mask="url(#mask-2)"></path>
                <path d="M384.2718,87.2697 C384.0158,87.2697 383.7598,87.1717 383.5648,86.9767 C383.1738,86.5857 383.1738,85.9537 383.5648,85.5627 L390.7208,78.4067 C391.1118,78.0157 391.7448,78.0157 392.1348,78.4067 C392.5258,78.7967 392.5258,79.4297 392.1348,79.8207 L384.9788,86.9767 C384.7838,87.1717 384.5278,87.2697 384.2718,87.2697" id="Fill-72" fill="#CACBD0" mask="url(#mask-2)"></path>
                <path d="M397.5784,101.9523 C397.3224,101.9523 397.0664,101.8543 396.8714,101.6593 C396.4804,101.2683 396.4804,100.6363 396.8714,100.2453 L405.1964,91.9193 C405.5874,91.5283 406.2204,91.5283 406.6104,91.9193 C407.0014,92.3093 407.0014,92.9423 406.6104,93.3333 L398.2854,101.6593 C398.0904,101.8543 397.8344,101.9523 397.5784,101.9523" id="Fill-73" fill="#CACBD0" mask="url(#mask-2)"></path>
                <path d="M404.6028,49.3772 C400.9958,49.3772 397.7458,50.4372 395.9368,52.2452 C395.7598,52.4232 395.5828,52.5952 395.4098,52.7632 C394.2048,53.9352 393.5218,54.6512 393.5138,55.7532 C393.4988,58.0492 396.5098,62.1392 402.9948,68.6222 C409.4608,75.0892 413.5458,78.1032 415.8458,78.1032 L415.8648,78.1032 C416.9658,78.0952 417.6818,77.4122 418.8538,76.2082 C419.0228,76.0342 419.1948,75.8572 419.3728,75.6802 C423.6108,71.4412 423.4688,60.5492 417.2688,54.3482 C414.4128,51.4912 410.2228,49.6922 405.7728,49.4132 C405.3798,49.3892 404.9898,49.3772 404.6028,49.3772 Z M415.8458,80.1032 C412.8638,80.1032 408.7258,77.1822 401.5808,70.0362 C394.4098,62.8662 391.4938,58.7242 391.5138,55.7382 C391.5288,53.7472 392.7918,52.5182 394.0148,51.3292 C394.1818,51.1672 394.3518,51.0022 394.5228,50.8312 C396.9558,48.3992 401.1998,47.1292 405.8988,47.4172 C410.8278,47.7272 415.4878,49.7372 418.6828,52.9342 C424.4708,58.7222 426.6228,71.2582 420.7868,77.0942 C420.6158,77.2652 420.4508,77.4352 420.2878,77.6022 C419.0988,78.8242 417.8708,80.0882 415.8778,80.1032 L415.8458,80.1032 Z" id="Fill-74" fill="#CACBD0" mask="url(#mask-2)"></path>
                <path d="M381.4104,45.923 C380.8294,45.923 380.4114,46.057 380.1604,46.308 C378.1144,48.354 383.8484,59.797 397.8334,73.783 C411.8194,87.769 423.2624,93.509 425.3084,91.457 C426.4524,90.314 425.1734,85.675 419.7814,78.117 C418.7384,79.155 417.5904,80.091 415.8794,80.103 C412.8714,80.087 408.7514,77.207 401.5804,70.036 C394.4094,62.865 391.4934,58.723 391.5144,55.737 C391.5264,54.027 392.4614,52.878 393.5004,51.835 C387.5994,47.626 383.4784,45.923 381.4104,45.923 M424.1374,93.755 C419.1854,93.755 409.2384,88.017 396.4194,75.197 C380.6714,59.448 375.6084,48.031 378.7464,44.894 C381.9594,41.685 390.7084,47.289 395.6394,50.914 C395.8744,51.088 396.0224,51.357 396.0434,51.649 C396.0644,51.941 395.9564,52.228 395.7474,52.433 L395.4104,52.762 C394.2054,53.934 393.5224,54.65 393.5144,55.752 C393.4984,58.049 396.5114,62.138 402.9944,68.622 C409.4604,75.089 413.5464,78.103 415.8464,78.103 L415.8654,78.103 C416.9674,78.095 417.6834,77.412 418.8544,76.207 L419.1834,75.87 C419.3894,75.661 419.6794,75.547 419.9684,75.574 C420.2604,75.595 420.5284,75.743 420.7024,75.979 C424.3284,80.91 429.9314,89.662 426.7234,92.871 C426.1394,93.455 425.2674,93.755 424.1374,93.755" id="Fill-75" fill="#CACBD0" mask="url(#mask-2)"></path>
                <path d="M430.2845,180.2463 C425.2295,180.2463 420.3665,182.4863 417.3885,186.3313 C413.1875,191.7513 413.0125,199.6233 416.8925,208.4953 C422.0535,220.2923 432.5445,227.2673 445.0065,227.1283 C445.5925,227.1223 446.1745,227.1003 446.7555,227.0633 C450.2695,218.5253 451.1275,206.8703 445.5895,191.1763 C443.5255,185.3263 438.9345,181.4223 432.9925,180.4623 C432.0905,180.3163 431.1835,180.2463 430.2845,180.2463 M401.4105,254.7443 C392.9735,254.7443 385.0445,253.0393 379.0615,249.8853 C378.5735,249.6273 378.3865,249.0223 378.6435,248.5333 C378.9025,248.0453 379.5055,247.8573 379.9955,248.1153 C394.1505,255.5813 420.9955,254.3353 436.8805,240.6153 C440.1745,237.7703 443.4405,234.0053 445.8345,229.1103 C445.5655,229.1193 445.2965,229.1253 445.0265,229.1283 C444.9065,229.1293 444.7855,229.1303 444.6655,229.1303 C431.5515,229.1313 420.5035,221.7383 415.0605,209.2963 C410.8725,199.7233 411.1375,191.1323 415.8065,185.1053 C419.7575,180.0083 426.6205,177.4093 433.3105,178.4883 C439.9985,179.5673 445.1615,183.9493 447.4755,190.5103 C453.0065,206.1843 452.3635,218.0203 449.0155,226.8433 C461.1545,225.2363 471.7675,216.9873 476.7275,204.9823 C481.4265,193.6073 480.9955,179.4883 475.4805,164.1513 C468.8125,145.6063 455.0285,125.6233 434.5115,104.7583 C434.1235,104.3643 434.1295,103.7303 434.5225,103.3443 C434.9155,102.9563 435.5505,102.9613 435.9365,103.3553 C456.6595,124.4293 470.5975,144.6553 477.3635,163.4753 C483.0485,179.2863 483.4685,193.9033 478.5755,205.7463 C473.1865,218.7923 461.4515,227.6363 448.1385,228.9583 C445.5765,234.6213 441.8955,238.9263 438.1865,242.1293 C428.1055,250.8363 414.1795,254.7443 401.4105,254.7443" id="Fill-76" fill="#CACBD0" mask="url(#mask-2)"></path>
                <path d="M37.2044,113.5695 C39.0374,114.4655 41.2464,116.1355 42.5004,119.2105 C43.7544,116.1355 45.9634,114.4655 47.7964,113.5695 C45.9634,112.6735 43.7544,111.0035 42.5004,107.9285 C41.2464,111.0035 39.0374,112.6735 37.2044,113.5695 M42.5004,125.7875 C41.9484,125.7875 41.5014,125.3405 41.5004,124.7885 C41.4864,115.5225 34.2194,114.5975 33.9094,114.5635 C33.4034,114.5065 33.0214,114.0785 33.0214,113.5695 C33.0214,113.0605 33.4044,112.6325 33.9104,112.5755 C34.2164,112.5395 41.4874,111.5605 41.5004,102.3505 C41.5014,101.7985 41.9484,101.3515 42.5004,101.3515 C43.0524,101.3515 43.4994,101.7985 43.5004,102.3505 C43.5134,111.5605 50.7844,112.5395 51.0944,112.5765 C51.5984,112.6365 51.9784,113.0655 51.9764,113.5725 C51.9754,114.0805 51.5954,114.5065 51.0914,114.5635 C50.7844,114.5995 43.5134,115.5785 43.5004,124.7885 C43.4994,125.3405 43.0524,125.7875 42.5004,125.7875" id="Fill-77" fill="#CACBD0" mask="url(#mask-2)"></path>
                <path d="M92.6712,83.5529 C94.5042,84.4489 96.7122,86.1189 97.9662,89.1939 C99.2202,86.1189 101.4292,84.4489 103.2622,83.5529 C101.4292,82.6569 99.2212,80.9869 97.9662,77.9109 C96.7122,80.9869 94.5042,82.6569 92.6712,83.5529 M97.9662,95.7709 C97.4142,95.7709 96.9672,95.3239 96.9662,94.7719 C96.9522,85.5059 89.6862,84.5809 89.3762,84.5469 C88.8702,84.4899 88.4882,84.0619 88.4882,83.5529 C88.4882,83.0439 88.8702,82.6159 89.3762,82.5589 C89.6832,82.5229 96.9532,81.5439 96.9662,72.3339 C96.9672,71.7819 97.4142,71.3349 97.9662,71.3349 C98.5182,71.3349 98.9652,71.7819 98.9662,72.3329 C98.9802,81.5439 106.2502,82.5229 106.5602,82.5599 C107.0642,82.6199 107.4442,83.0489 107.4422,83.5569 C107.4412,84.0639 107.0612,84.4899 106.5572,84.5469 C106.2502,84.5829 98.9792,85.5619 98.9662,94.7719 C98.9652,95.3239 98.5182,95.7709 97.9662,95.7709" id="Fill-78" fill="#CACBD0" mask="url(#mask-2)"></path>
            </g>
        </g>
    </g>
</svg>