<?xml version="1.0" standalone="no"?><!DOCTYPE svg PUBLIC "-//W3C//DTD SVG 1.1//EN" "http://www.w3.org/Graphics/SVG/1.1/DTD/svg11.dtd"><svg t="1566356064490" class="icon" viewBox="0 0 1669 1024" version="1.1" xmlns="http://www.w3.org/2000/svg" p-id="5422" xmlns:xlink="http://www.w3.org/1999/xlink" width="325.9765625" height="200"><defs><style type="text/css"></style></defs><path d="M675.971788 646.668688a21.611262 21.611262 0 0 0-7.774783-31.49446 185.584514 185.584514 0 0 0-237.196775 59.650596l-65.624441 94.922635a90.046924 90.046924 0 0 1-79.460919 41.026257 90.1787 90.1787 0 0 1 3.909354-180.093847 471.494478 471.494478 0 0 0 70.280526 10.673855 92.90207 92.90207 0 0 0 90.354401-92.726369 94.483382 94.483382 0 0 0-57.937509-87.103927 281.912759 281.912759 0 1 0 120.26755 421.419603z" fill="#3E4DA8" p-id="5423"></path><path d="M1167.056963 323.729672a321.182003 321.182003 0 1 0-572.65451 201.13408 116.006793 116.006793 0 0 0 85.917943 43.925329 101.028256 101.028256 0 0 0 106.870324-100.2376 144.953585 144.953585 0 0 0-22.972947-74.980536 114.776884 114.776884 0 0 1-22.709395-91.101132 109.110516 109.110516 0 0 1 107.748832-86.401121 107.529205 107.529205 0 0 1 103.751626 107.880607 245.98184 245.98184 0 0 1-50.601979 110.999305c-89.695521 130.546077-326.453043 470.835598-366.337241 524.248798a20.996307 20.996307 0 0 0 4.700011 29.649597 191.73406 191.73406 0 0 0 268.383758-47.702907l302.645514-435.695335A323.993224 323.993224 0 0 0 1167.056963 323.729672z" fill="#3E4DA8" p-id="5424"></path><path d="M1406.493929 441.581329a282.176311 282.176311 0 0 0-246.201467 113.019871l-3.557952 5.051412-0.307477 0.395328-273.830499 390.935425a19.898174 19.898174 0 0 0 6.984127 28.902867 192.612566 192.612566 0 0 0 249.18839-59.035642l178.336834-254.766906a90.222625 90.222625 0 0 1 71.642211-32.943997 90.486177 90.486177 0 0 1-1.888789 180.972354c-6.896277 0-37.951484-1.449536-45.41879-1.449536a90.354401 90.354401 0 0 0-92.24319 92.945996 96.020768 96.020768 0 0 0 71.773987 92.858145l3.162624 0.65888 3.294399 0.702805a282.747341 282.747341 0 1 0 79.373069-558.422703z" fill="#3E4DA8" p-id="5425"></path></svg>