<?xml version="1.0" standalone="no"?><!DOCTYPE svg PUBLIC "-//W3C//DTD SVG 1.1//EN" "http://www.w3.org/Graphics/SVG/1.1/DTD/svg11.dtd"><svg t="1556014808193" class="icon" style="" viewBox="0 0 1024 1024" version="1.1" xmlns="http://www.w3.org/2000/svg" p-id="2109" xmlns:xlink="http://www.w3.org/1999/xlink" width="200" height="200"><defs><style type="text/css"></style></defs><path d="M504.7168 783.5904a99.0976 99.0976 0 0 1-11.8272 0.8448c-2.2528 0-4.224-0.2944-11.264-0.8448l-8.7296 41.9584a51.6736 51.6736 0 0 0-1.408 9.856c0 10.1248 7.04 16.0512 19.2 16.0512h9.3056l-2.56 11.8144h-94.3232l2.56-11.8144h1.9584a23.424 23.424 0 0 0 21.9648-10.4192 58.24 58.24 0 0 0 6.4768-20.8384l21.76-106.7264a70.4768 70.4768 0 0 0 1.1136-10.1376c0-10.4192-6.7584-15.7568-20.8384-15.7568h-1.984l2.2528-12.1088h70.1312c30.4128 0 44.2112 2.56 57.1648 9.856a43.6608 43.6608 0 0 1 23.9232 38.016c0 22.8096-18.5856 43.0848-48.7168 53.504a171.648 171.648 0 0 0 28.4416 60.2624 48.192 48.192 0 0 0 35.776 17.1776h2.56l-6.4768 11.52q-2.8544 0.0896-5.5936 0.0896c-49.024 0-72.96-22.0544-90.8672-82.304z m-20.5568-12.672c2.8032 0.2816 5.3504 0.2816 6.4768 0.2816 32.9472 0 55.7568-20.2752 55.7568-48.9856a35.0208 35.0208 0 0 0-8.1664-24.7808c-6.4768-6.7584-14.6432-8.96-32.1024-8.96h-5.3376z m125.6064 92.3648l2.56-11.8144h2.2528a27.6608 27.6608 0 0 0 21.4016-7.8848 54.4896 54.4896 0 0 0 8.1664-22.8096l21.9648-107.2896a50.2784 50.2784 0 0 0 1.1136-10.1376c0-10.9696-6.4-15.7568-21.12-15.7568h-6.1824l2.56-12.1088h93.7728c43.3792 0 68.992 19.712 68.992 53.2224 0 38.5664-32.6528 68.1472-74.624 68.1472a77.44 77.44 0 0 1-23.04-3.0976l2.2528-11.264a24.4992 24.4992 0 0 0 6.7584 0.8448 38.6304 38.6304 0 0 0 34.0864-16.896 74.5344 74.5344 0 0 0 12.1088-42.8032 33.6768 33.6768 0 0 0-12.672-30.1312 39.9232 39.9232 0 0 0-25.6-5.3376h-15.1936l-27.8912 137.4208a61.9904 61.9904 0 0 0-1.408 9.856c0 10.1248 6.7712 16.0512 19.2 16.0512h8.96l-2.56 11.8144z m-404.9536 0l2.56-11.8144h1.1136a26.0864 26.0864 0 0 0 20.0064-7.8848 53.0048 53.0048 0 0 0 8.1664-22.8096l21.6832-107.2896a64.2304 64.2304 0 0 0 1.3952-10.1376c0-10.9696-6.4768-15.7568-21.12-15.7568h-5.3376l2.24-12.1088h167.0016l-8.96 45.3376h-14.3616c0.2688-3.0976 0.5632-4.5056 0.5632-6.4768a23.232 23.232 0 0 0-11.52-21.6832 52.9536 52.9536 0 0 0-28.736-4.4928h-37.7344l-15.2064 74.3424h40c21.6832 0 27.0208-3.392 33.28-21.1328h12.1088l-12.3776 60.8384h-12.1088a34.7648 34.7648 0 0 0 1.9712-10.9824c0-10.9824-7.0272-16.0512-22.8096-16.0512h-42.5344l-10.4192 50.9696a43.8016 43.8016 0 0 0-1.1136 8.7296 15.2832 15.2832 0 0 0 6.7456 12.672 24 24 0 0 0 15.7696 3.0976h12.3904a95.7056 95.7056 0 0 0 44.8-12.672 105.92 105.92 0 0 0 23.6544-21.12h13.5296l-16.64 46.4512z m215.04-353.4848a7.2192 7.2192 0 0 1-1.6896-10.24c13.9392-18.6624 96.8832-136.8192 128.2688-182.1312a86.5664 86.5664 0 0 0 17.7664-38.5664 37.4272 37.4272 0 0 0-36.288-37.504A38.144 38.144 0 0 0 490.24 271.36a39.9616 39.9616 0 0 0 7.9616 31.68 49.3696 49.3696 0 0 1 8.1152 26.0224 35.008 35.008 0 0 1-37.3376 34.752 40.1792 40.1792 0 0 1-29.9904-15.1552 111.7952 111.7952 0 0 1-24.32-74.24 112.96 112.96 0 0 1 108.0576-107.904 112.384 112.384 0 0 1 116.7744 112.3456 108.9408 108.9408 0 0 1-19.7376 63.0528l-105.92 151.3856a67.6096 67.6096 0 0 1-55.3856 28.7616 66.8416 66.8416 0 0 1-38.6176-12.2752z m273.664 3.968c-0.4736-0.1408-0.768-0.1408-1.28-0.2944s-0.768-0.1664-1.0624-0.32a33.5104 33.5104 0 0 1-25.1008-32.448 31.616 31.616 0 0 1 32.2816-32.5888c2.56 0 13.4656 0.4608 15.936 0.4608a31.6288 31.6288 0 0 0 31.68-32.9088 32.128 32.128 0 0 0-31.0656-30.3104 31.3728 31.3728 0 0 0-25.1008 11.52l-62.4384 89.216a67.4688 67.4688 0 0 1-87.232 20.672A6.9248 6.9248 0 0 1 537.6 496.64l95.808-136.96a0.1536 0.1536 0 0 0 0.1536-0.1536l1.28-1.8432a98.6752 98.6752 0 0 1 86.1696-39.68 100.0576 100.0576 0 0 1 92.2752 96.128 99.0592 99.0592 0 0 1-99.0208 101.9264 103.872 103.872 0 0 1-20.8-2.304z m-459.9424-104.8448a99.008 99.008 0 0 1 92.16-91.52 99.648 99.648 0 0 1 44.8 7.68 32.9088 32.9088 0 0 1 20.352 30.4512 32.6144 32.6144 0 0 1-31.6928 32.448 162.304 162.304 0 0 1-24.6272-3.6736 31.4752 31.4752 0 0 0-31.5264 32.7424 31.7312 31.7312 0 0 0 30.1312 30.3232 31.5776 31.5776 0 0 0 27.8656-14.3872L384 399.744a65.0496 65.0496 0 0 1 83.1104-20.8128 7.5136 7.5136 0 0 1 2.752 11.0208l-57.2416 82.6496a98.3552 98.3552 0 0 1-80.64 41.9456 98.624 98.624 0 0 1-98.4576-105.6384z" fill="#4297FF" p-id="2110"></path></svg>