<?xml version="1.0" standalone="no"?><!DOCTYPE svg PUBLIC "-//W3C//DTD SVG 1.1//EN" "http://www.w3.org/Graphics/SVG/1.1/DTD/svg11.dtd"><svg t="1563174330125" class="icon" viewBox="0 0 3392 1024" version="1.1" xmlns="http://www.w3.org/2000/svg" p-id="4839" xmlns:xlink="http://www.w3.org/1999/xlink" width="662.5" height="200"><defs><style type="text/css"></style></defs><path d="M0 0h112v1024H0z" fill="#D8D8D8" p-id="4840"></path><path d="M144 0h32v1024H144z" fill="#D8D8D8" p-id="4841"></path><path d="M208 0h112v1024h-112z" fill="#D8D8D8" p-id="4842"></path><path d="M336 0h48v1024h-48z" fill="#D8D8D8" p-id="4843"></path><path d="M416 0h96v1024h-96z" fill="#D8D8D8" p-id="4844"></path><path d="M544 0h32v1024h-32z" fill="#D8D8D8" p-id="4845"></path><path d="M608 0h32v1024h-32z" fill="#D8D8D8" p-id="4846"></path><path d="M672 0h112v1024h-112z" fill="#D8D8D8" p-id="4847"></path><path d="M816 0h96v1024h-96z" fill="#D8D8D8" p-id="4848"></path><path d="M944 0h48v1024h-48z" fill="#D8D8D8" p-id="4849"></path><path d="M1024 0h32v1024h-32z" fill="#D8D8D8" p-id="4850"></path><path d="M1088 0h80v1024h-80z" fill="#D8D8D8" p-id="4851"></path><path d="M1200 0h112v1024h-112z" fill="#D8D8D8" p-id="4852"></path><path d="M1344 0h32v1024h-32z" fill="#D8D8D8" p-id="4853"></path><path d="M1408 0h32v1024h-32z" fill="#D8D8D8" p-id="4854"></path><path d="M1472 0h48v1024h-48z" fill="#D8D8D8" p-id="4855"></path><path d="M1552 0h96v1024h-96z" fill="#D8D8D8" p-id="4856"></path><path d="M1680 0h32v1024h-32z" fill="#D8D8D8" p-id="4857"></path><path d="M1744 0h32v1024h-32z" fill="#D8D8D8" p-id="4858"></path><path d="M1808 0h96v1024h-96z" fill="#D8D8D8" p-id="4859"></path><path d="M1936 0h48v1024h-48z" fill="#D8D8D8" p-id="4860"></path><path d="M2016 0h32v1024h-32z" fill="#D8D8D8" p-id="4861"></path><path d="M2080 0h112v1024h-112z" fill="#D8D8D8" p-id="4862"></path><path d="M2224 0h96v1024h-96z" fill="#D8D8D8" p-id="4863"></path><path d="M2352 0h48v1024h-48z" fill="#D8D8D8" p-id="4864"></path><path d="M2432 0h32v1024h-32z" fill="#D8D8D8" p-id="4865"></path><path d="M2496 0h80v1024h-80z" fill="#D8D8D8" p-id="4866"></path><path d="M2608 0h48v1024h-48z" fill="#D8D8D8" p-id="4867"></path><path d="M2688 0h32v1024h-32z" fill="#D8D8D8" p-id="4868"></path><path d="M2752 0h80v1024h-80z" fill="#D8D8D8" p-id="4869"></path><path d="M2864 0h48v1024h-48z" fill="#D8D8D8" p-id="4870"></path><path d="M2944 0h32v1024h-32z" fill="#D8D8D8" p-id="4871"></path><path d="M3008 0h112v1024h-112z" fill="#D8D8D8" p-id="4872"></path><path d="M3152 0h96v1024h-96z" fill="#D8D8D8" p-id="4873"></path><path d="M3280 0h48v1024h-48z" fill="#D8D8D8" p-id="4874"></path><path d="M3360 0h32v1024h-32z" fill="#D8D8D8" p-id="4875"></path></svg>